<?xml version="1.0" encoding="utf-8"?>
<!-- Generator: Adobe Illustrator 18.1.1, SVG Export Plug-In . SVG Version: 6.00 Build 0)  -->
<svg version="1.1" id="Layer_1" xmlns="http://www.w3.org/2000/svg" xmlns:xlink="http://www.w3.org/1999/xlink" x="0px" y="0px"
	 viewBox="0 0 378.9 377.2" enable-background="new 0 0 378.9 377.2" xml:space="preserve">
<g>
	<g>
		<rect x="2.5" y="2.5" fill="#FFFFFF" width="373.7" height="371.8"/>
	</g>
	<g>
		<rect x="2.5" y="2.5" fill="none" width="373.7" height="371.8"/>
	</g>
	<g>
		<path fill="#FFFFFF" d="M308.1,374.6H87.4c0-0.1,0-0.2,0.1-0.3c11.6-44.8,42.1-79.8,80.6-91.8c9.5-3,19.4-4.6,29.7-4.6
			c9.7,0,19.2,1.4,28.2,4.1c37.5,11.1,67.7,43.9,80.5,86.4c0.6,1.9,1.1,3.9,1.6,5.8C308.1,374.4,308.1,374.5,308.1,374.6z"/>
		<path fill="#72AAD0" d="M308.2,377.2C308.2,377.2,308.2,377.2,308.2,377.2H87.4c-0.7,0-1.4-0.3-1.9-0.8c-0.5-0.5-0.7-1.3-0.6-2
			c0-0.3,0.1-0.5,0.2-0.8c11.8-45.4,43.3-81.2,82.3-93.5c19.3-6.1,40.1-6.2,59.4-0.5c38.2,11.4,69,44.3,82.2,88.1
			c0.6,1.8,1.1,3.8,1.6,5.8c0,0.1,0,0.1,0.1,0.2c0.1,0.3,0.2,0.6,0.2,0.9C310.7,376,309.6,377.2,308.2,377.2z M90.7,372.1h214.1
			c-0.3-1-0.5-1.9-0.8-2.8c-12.7-42.2-42.2-73.9-78.8-84.7c-18.3-5.4-38-5.3-56.4,0.4C132.3,296.4,102.6,329.7,90.7,372.1z"/>
	</g>
	<g>
		<path fill="#FFFFFF" d="M168.1,258.5v42.4c0,8.4,13,15.3,28.9,15.3c16,0,28.9-6.8,28.9-15.3v-42.4H168.1z"/>
		<path fill="#72AAD0" d="M197,318.6c-17.7,0-31.5-7.8-31.5-17.8v-42.4c0-1.4,1.1-2.5,2.5-2.5H226c1.4,0,2.5,1.1,2.5,2.5v42.4
			C228.5,310.8,214.7,318.6,197,318.6z M170.6,261v39.8c0,6.1,10.6,12.7,26.4,12.7c15.8,0,26.4-6.6,26.4-12.7V261H170.6z"/>
	</g>
	<g>
		<g>
			<path fill="#FFFFFF" d="M102,129.5H118c7,0,12.7,5.7,12.7,12.7v57.2c0,7-5.7,12.7-12.7,12.7H102c-7,0-12.7-5.7-12.7-12.7v-57.2
				C89.3,135.2,95,129.5,102,129.5z"/>
			<path fill="#72AAD0" d="M118,214.7H102c-8.4,0-15.3-6.8-15.3-15.3v-57.2c0-8.4,6.8-15.3,15.3-15.3H118c8.4,0,15.3,6.8,15.3,15.3
				v57.2C133.2,207.9,126.4,214.7,118,214.7z M102,132.1c-5.6,0-10.2,4.6-10.2,10.2v57.2c0,5.6,4.6,10.2,10.2,10.2H118
				c5.6,0,10.2-4.6,10.2-10.2v-57.2c0-5.6-4.6-10.2-10.2-10.2H102z"/>
		</g>
		<g>
			<path fill="#FFFFFF" d="M276.1,129.5H292c7,0,12.7,5.7,12.7,12.7v57.2c0,7-5.7,12.7-12.7,12.7h-15.9c-7,0-12.7-5.7-12.7-12.7
				v-57.2C263.4,135.2,269.1,129.5,276.1,129.5z"/>
			<path fill="#72AAD0" d="M292,214.7h-15.9c-8.4,0-15.3-6.8-15.3-15.3v-57.2c0-8.4,6.8-15.3,15.3-15.3H292
				c8.4,0,15.3,6.8,15.3,15.3v57.2C307.3,207.9,300.5,214.7,292,214.7z M276.1,132.1c-5.6,0-10.2,4.6-10.2,10.2v57.2
				c0,5.6,4.6,10.2,10.2,10.2H292c5.6,0,10.2-4.6,10.2-10.2v-57.2c0-5.6-4.6-10.2-10.2-10.2H276.1z"/>
		</g>
		<g>
			<path fill="#72AAD0" d="M284.4,132c-1.4,0-2.5-1.1-2.5-2.5c0-44-38-79.9-84.8-79.9s-84.8,35.8-84.8,79.9c0,1.4-1.1,2.5-2.5,2.5
				s-2.5-1.1-2.5-2.5c0-46.8,40.3-84.9,89.9-84.9s89.9,38.1,89.9,84.9C286.9,130.8,285.8,132,284.4,132z"/>
		</g>
		<g>
			<g>
				<ellipse fill="#FFFFFF" cx="197" cy="172.4" rx="84.5" ry="99.9"/>
				<path fill="#72AAD0" d="M197,274.9c-48,0-87.1-45.9-87.1-102.4C110,116,149,70,197,70s87.1,45.9,87.1,102.4
					C284.1,228.9,245,274.9,197,274.9z M197,75.1c-45.2,0-82,43.7-82,97.3c0,53.7,36.8,97.3,82,97.3c45.2,0,82-43.7,82-97.3
					C279,118.8,242.2,75.1,197,75.1z"/>
			</g>
			<g>
				<defs>
					<ellipse id="SVGID_1_" cx="197" cy="172.4" rx="84.5" ry="99.9"/>
				</defs>
				<clipPath id="SVGID_2_">
					<use xlink:href="#SVGID_1_"  overflow="visible"/>
				</clipPath>
				<g clip-path="url(#SVGID_2_)">
					<path fill="#72AAD0" d="M256.6,150.3c-24.7,0-51.3-7.8-74.8-21.9c-56.5-34-82-95.7-56.8-137.6c13.8-23,40.6-36.2,73.4-36.2
						c24.7,0,51.3,7.8,74.8,21.9c56.5,34,82,95.7,56.8,137.6C316.2,137.1,289.5,150.3,256.6,150.3z M198.5-40.4
						c-31,0-56.2,12.3-69.1,33.8c-23.8,39.5,0.9,98.1,55.1,130.7c22.7,13.7,48.3,21.2,72.2,21.2c31,0,56.2-12.3,69.1-33.8
						c23.8-39.5-0.9-98.1-55.1-130.7C248-32.8,222.3-40.4,198.5-40.4z M251,131.9C251,131.9,251,131.9,251,131.9
						c-20.1,0-41.6-6.3-60.6-17.7c-22.1-13.3-39-32.1-47.8-53.1c-8.8-21.2-8.2-42,1.8-58.6c11.3-18.7,33-29.5,59.6-29.5
						c20.1,0,41.6,6.3,60.6,17.7c22.1,13.3,39,32.1,47.8,53.1c8.8,21.2,8.2,42-1.8,58.6C299.4,121.1,277.7,131.9,251,131.9z
						 M204.1-21.9c-24.8,0-45,9.8-55.3,27c-9.1,15.2-9.7,34.4-1.5,54.1c8.3,19.9,24.5,37.9,45.7,50.7c18.2,11,38.8,17,58,17
						c24.8,0,45-9.8,55.3-27c9.1-15.2,9.7-34.4,1.5-54.1c-8.3-19.9-24.5-37.9-45.7-50.7C243.8-15.9,223.3-21.9,204.1-21.9z
						 M245.4,113.4C245.4,113.4,245.4,113.4,245.4,113.4c-15.4,0-31.8-4.8-46.4-13.6c-16.9-10.2-29.9-24.6-36.6-40.6
						c-6.8-16.3-6.3-32.3,1.4-45.1c8.7-14.4,25.4-22.7,45.9-22.7c15.4,0,31.8,4.8,46.4,13.6c35.1,21.1,50.9,59.6,35.2,85.8
						C282.6,105.2,265.9,113.4,245.4,113.4z M209.7-3.5c-18.6,0-33.8,7.4-41.5,20.2c-6.8,11.4-7.2,25.8-1.1,40.6
						c6.3,15,18.5,28.6,34.5,38.2c13.8,8.3,29.3,12.8,43.8,12.8c18.6,0,33.8-7.4,41.5-20.2c14.3-23.8-0.7-59.1-33.4-78.8
						C239.7,1.1,224.2-3.5,209.7-3.5z M239.8,95C239.8,95,239.8,95,239.8,95c-10.7,0-22.1-3.3-32.2-9.4
						c-24.4-14.7-35.4-41.5-24.4-59.8c6.1-10.1,17.8-15.9,32.1-15.9c10.7,0,22.1,3.3,32.2,9.4C272,34,282.9,60.8,271.9,79.1
						C265.8,89.2,254.1,95,239.8,95z M215.4,14.9c-12.5,0-22.6,4.9-27.7,13.5c-9.6,15.9,0.6,39.6,22.6,52.8
						c9.3,5.6,19.8,8.7,29.5,8.7c12.5,0,22.6-4.9,27.7-13.5c9.6-15.9-0.6-39.6-22.6-52.8C235.6,18,225.1,14.9,215.4,14.9z"/>
				</g>
			</g>
			<g>
				<defs>
					<ellipse id="SVGID_3_" cx="197" cy="172.4" rx="84.5" ry="99.9"/>
				</defs>
				<clipPath id="SVGID_4_">
					<use xlink:href="#SVGID_3_"  overflow="visible"/>
				</clipPath>
				<g clip-path="url(#SVGID_4_)">
					<path fill="#72AAD0" d="M60.6,183.5c-11.1,0-21.9-2.4-31.8-7.6c-43.4-22.5-54.1-88.4-23.7-147c0.6-1.2,2.2-1.7,3.4-1.1
						c1.2,0.6,1.7,2.2,1.1,3.4c-29,56.1-19.4,118.9,21.5,140.1c40.9,21.2,97.8-7.2,126.9-63.3c0.6-1.2,2.2-1.7,3.4-1.1
						c1.2,0.6,1.7,2.2,1.1,3.4C139.1,155.7,98,183.5,60.6,183.5z M65.2,162c-9.2,0-18-2.1-26-6.2C4,137.6-4.7,84.1,19.9,36.6
						c0.6-1.2,2.2-1.7,3.4-1.1c1.2,0.6,1.7,2.2,1.1,3.4c-23.3,45-15.6,95.4,17.2,112.4c15.7,8.2,34.9,7.4,54-2
						c19.4-9.6,36.3-26.9,47.6-48.8c0.8-1.5,1.5-3,2.2-4.5c0.6-1.3,2.1-1.8,3.4-1.2c1.3,0.6,1.8,2.1,1.2,3.4
						c-0.7,1.6-1.5,3.1-2.3,4.7c-11.8,22.9-29.6,41-49.9,51C86.8,159.3,75.8,162,65.2,162z M69.5,140.5c-6.9,0-13.7-1.5-19.9-4.7
						c-27.1-14-33.8-55.1-15-91.5l0,0c9.1-17.5,22.6-31.4,38.2-39.1c15.8-7.8,31.9-8.3,45.1-1.5c27.1,14,33.8,55.1,15,91.5
						C118.4,123.2,92.9,140.5,69.5,140.5z M39.2,46.6C21.6,80.5,27.3,118.5,52,131.2c5.5,2.9,11.5,4.2,17.7,4.2
						c21.4,0,45.2-16.3,58.8-42.6C146,58.9,140.3,21,115.7,8.2c-11.8-6.1-26.2-5.6-40.5,1.5C60.5,17,47.7,30,39.2,46.6L39.2,46.6z
						 M74.1,119c-5,0-9.7-1.1-14.1-3.4c-9.3-4.8-15.5-14.2-17.4-26.4c-1.9-11.9,0.5-25.2,6.8-37.3l0,0C55.7,39.8,65.1,30.2,76,24.8
						c11.1-5.5,22.3-5.8,31.6-1c19,9.8,23.7,38.4,10.6,63.7c-6.3,12.1-15.7,21.8-26.5,27.1C85.7,117.5,79.8,119,74.1,119z
						 M93.5,25.5c-4.9,0-10.1,1.3-15.3,3.8c-9.9,4.9-18.5,13.7-24.3,24.9l0,0c-5.8,11.2-8,23.3-6.3,34.2
						c1.7,10.6,6.9,18.6,14.7,22.7c7.8,4.1,17.4,3.7,27-1c9.9-4.9,18.5-13.7,24.3-24.9c11.8-22.8,8-48.3-8.4-56.9
						C101.6,26.5,97.7,25.5,93.5,25.5z"/>
				</g>
			</g>
		</g>
		<g>
			<path fill="#72AAD0" d="M165.9,173.6c-6.6,0-11.9-4.9-11.9-11c0-1.4,1.1-2.5,2.5-2.5s2.5,1.1,2.5,2.5c0,3.2,3.1,5.9,6.8,5.9
				c3.8,0,6.8-2.6,6.8-5.9c0-1.4,1.1-2.5,2.5-2.5s2.5,1.1,2.5,2.5C177.8,168.7,172.5,173.6,165.9,173.6z"/>
		</g>
		<g>
			<path fill="#72AAD0" d="M197.8,204.2c-6,0-11-5.3-11-11.9s4.9-11.9,11-11.9c1.4,0,2.5,1.1,2.5,2.5s-1.1,2.5-2.5,2.5
				c-3.2,0-5.9,3.1-5.9,6.8c0,3.8,2.6,6.8,5.9,6.8c1.4,0,2.5,1.1,2.5,2.5S199.2,204.2,197.8,204.2z"/>
		</g>
		<g>
			<path fill="#72AAD0" d="M229.6,173.6c-6.6,0-11.9-4.9-11.9-11c0-1.4,1.1-2.5,2.5-2.5s2.5,1.1,2.5,2.5c0,3.2,3.1,5.9,6.8,5.9
				c3.8,0,6.8-2.6,6.8-5.9c0-1.4,1.1-2.5,2.5-2.5s2.5,1.1,2.5,2.5C241.5,168.7,236.2,173.6,229.6,173.6z"/>
		</g>
		<g>
			<path fill="#72AAD0" d="M145.1,163.1c-0.1,0-0.3,0-0.4,0c-1.4-0.2-2.3-1.5-2.1-2.9l0.6-4c0.6-3.7,3.7-6.5,7.5-6.5h27.4
				c1.4,0,2.5,1.1,2.5,2.5s-1.1,2.5-2.5,2.5h-27.4c-1.3,0-2.3,0.9-2.5,2.2l-0.6,4C147.4,162.2,146.3,163.1,145.1,163.1z"/>
		</g>
		<g>
			<path fill="#72AAD0" d="M215.3,227.6h-40.1c-1.4,0-2.5-1.1-2.5-2.5s1.1-2.5,2.5-2.5h40.1c1.4,0,2.5,1.1,2.5,2.5
				S216.7,227.6,215.3,227.6z"/>
		</g>
		<g>
			<path fill="#72AAD0" d="M249,164.1c-1.2,0-2.3-0.9-2.5-2.2l-0.6-4c-0.2-1.2-1.2-2.2-2.5-2.2h-27.4c-1.4,0-2.5-1.1-2.5-2.5
				s1.1-2.5,2.5-2.5h27.4c3.8,0,7,2.7,7.5,6.5l0.6,4c0.2,1.4-0.7,2.7-2.1,2.9C249.2,164.1,249.1,164.1,249,164.1z"/>
		</g>
		<g>
			<path fill="#72AAD0" d="M148.2,68.7c-2.5,0-5-1.2-6.4-3.5c-2.3-3.6-1.2-8.3,2.3-10.5c5.1-3.2,10.5-6,16.1-8.2
				c5.7-2.3,11.7-4,17.8-5.2c12.5-2.4,25.6-2.4,38.1,0c6.1,1.2,12.1,2.9,17.8,5.2c5.6,2.2,11,5,16.1,8.2c3.6,2.3,4.6,7,2.3,10.5
				c-2.3,3.6-7,4.6-10.5,2.3c-4.3-2.7-8.8-5.1-13.6-6.9c-4.8-1.9-9.9-3.4-15-4.4c-10.6-2-21.8-2-32.3,0c-5.1,1-10.2,2.5-15,4.4
				c-4.7,1.9-9.3,4.2-13.6,6.9C151,68.3,149.6,68.7,148.2,68.7z"/>
		</g>
	</g>
	<g>
		<path fill="#72AAD0" d="M331.7,310.6c-1.4,0-2.5-1.1-2.5-2.5v-38c0-5.2-4.2-9.4-9.4-9.4c-5,0-9,3.9-9.3,8.7c0,0.2,0.1,0.4,0.1,0.5
			v25.4c0,0.3-0.1,0.7-0.2,1c-0.9,7.1-7,12.6-14.3,12.6c-7.5,0-13.6-5.7-14.4-13c0-0.2-0.1-0.4-0.1-0.6v-83.2c0-1.4,1.1-2.5,2.5-2.5
			s2.5,1.1,2.5,2.5v82.3c0,5.2,4.2,9.4,9.4,9.4s9.4-4.2,9.4-9.4c0-0.2,0-0.4,0.1-0.6v-23.2c-0.1-0.2-0.1-0.4-0.1-0.6
			c0-8,6.5-14.4,14.4-14.4c7.9,0,14.4,6.4,14.4,14.3c0,0,0,0,0,0.1V308C334.2,309.5,333.1,310.6,331.7,310.6z"/>
	</g>
	<g>
		<rect x="308.8" y="308" fill="#FFFFFF" width="45.7" height="66.6"/>
		<path fill="#72AAD0" d="M354.6,377.2h-45.7c-1.4,0-2.5-1.1-2.5-2.5V308c0-1.4,1.1-2.5,2.5-2.5h45.7c1.4,0,2.5,1.1,2.5,2.5v66.6
			C357.1,376,356,377.2,354.6,377.2z M311.4,372.1H352v-61.5h-40.6V372.1z"/>
	</g>
	<g>
		<path fill="#FFFFFF" d="M376.4,344.4v30.2h-71c0-0.1,0-0.2-0.1-0.3c-0.3-1.4-0.3-3,0.3-4.4c0.2-0.5,0.5-1,0.8-1.4
			c0.6-0.9,1.5-1.6,2.4-2.1c1.9-1,4.1-1.2,6.3-0.4c-3.7-1.5-5.5-5.7-3.9-9.4c1.5-3.7,5.7-5.5,9.4-3.9c-3.7-1.5-5.5-5.7-3.9-9.4
			c1.5-3.7,5.7-5.4,9.4-3.9c-3.7-1.5-5.4-5.7-3.9-9.4c1.5-3.7,5.7-5.5,9.4-3.9l23,9.5l21.7,8.9L376.4,344.4z"/>
		<path fill="#72AAD0" d="M376.4,377.2h-71c-1.1,0-2-0.7-2.4-1.6c-0.1-0.2-0.1-0.4-0.2-0.6c-0.5-2-0.3-4,0.5-5.9
			c0.3-0.7,0.6-1.3,1.1-1.9c0.8-1.2,1.9-2.2,3.2-2.9c0.5-0.3,0.9-0.5,1.4-0.6c-1.1-2.4-1.3-5.2-0.2-7.9c1.1-2.6,3.2-4.6,5.7-5.5
			c-1.1-2.4-1.3-5.2-0.2-7.9c1.1-2.6,3.2-4.6,5.7-5.5c-0.1-0.1-0.1-0.3-0.2-0.4c-1-2.4-1-5.1,0-7.5c1.5-3.7,5-6.1,9-6.1
			c1.3,0,2.5,0.2,3.7,0.7l44.7,18.4c0,0,0.1,0,0.1,0l0.1,0.1c0.9,0.4,1.5,1.3,1.5,2.3v30.2C378.9,376,377.8,377.2,376.4,377.2z
			 M307.7,372.1h66.2v-26l-43.3-17.8c-0.6-0.2-1.2-0.4-1.8-0.4c-1.9,0-3.6,1.1-4.3,2.9c-0.5,1.2-0.5,2.4,0,3.6
			c0.5,1.2,1.4,2.1,2.5,2.5c1,0.4,1.6,1.4,1.6,2.4c0,0.3-0.1,0.7-0.2,1c-0.5,1.3-2,1.9-3.3,1.4c-0.6-0.2-1.2-0.4-1.8-0.4
			c-1.9,0-3.6,1.1-4.3,2.9c-1,2.4,0.2,5.1,2.6,6.1c1,0.4,1.6,1.4,1.6,2.4c0,0.3-0.1,0.7-0.2,1c-0.5,1.3-2,1.9-3.3,1.4
			c-0.6-0.2-1.2-0.4-1.8-0.4c-1.9,0-3.6,1.1-4.3,2.9c-1,2.4,0.2,5.1,2.5,6.1c1.3,0.5,1.9,2,1.4,3.3c-0.5,1.3-2,1.9-3.3,1.4
			c0,0,0,0,0,0l0,0c0,0,0,0,0,0c-1.3-0.5-2.8-0.4-4.1,0.2c-0.6,0.3-1.1,0.8-1.5,1.4c-0.2,0.3-0.4,0.6-0.5,0.9
			C307.9,371.3,307.7,371.7,307.7,372.1z"/>
	</g>
	<g>
		<rect x="2.4" y="2.5" fill="none" width="374" height="372.1"/>
	</g>
	<g>
		<path fill="#72AAD0" d="M376.3,376.9H2.5c-1.4,0-2.5-1.1-2.5-2.5V2.5C0,1.1,1.1,0,2.5,0h373.7c1.4,0,2.5,1.1,2.5,2.5v371.8
			C378.8,375.8,377.7,376.9,376.3,376.9z M5.1,371.8h368.6V5.1H5.1V371.8z"/>
	</g>
</g>
</svg>
