<?xml version="1.0" encoding="utf-8"?>
<!-- Generator: Adobe Illustrator 18.1.1, SVG Export Plug-In . SVG Version: 6.00 Build 0)  -->
<svg version="1.1" id="Layer_1" xmlns="http://www.w3.org/2000/svg" xmlns:xlink="http://www.w3.org/1999/xlink" x="0px" y="0px"
	 viewBox="0 0 378.7 377" enable-background="new 0 0 378.7 377" xml:space="preserve">
<g>
	<g>
		<rect x="2.5" y="2.7" fill="#FFFFFF" width="373.7" height="371.8"/>
	</g>
	<g>
		<g>
			<path fill="#FFFFFF" d="M314.2,371.6c0,0.9-0.1,1.8-0.2,2.7c0,0.1,0,0.1,0,0.1H62.6v-0.1c-0.2-0.9-0.2-1.8-0.2-2.7
				c0-35.2,24.3-66,60.6-83c9.1-4.3,19.1-7.7,29.5-10.1c0.3-0.1,0.6-0.1,0.9-0.2c11.1-2.5,22.8-3.8,34.9-3.8
				c11.2,0,22.1,1.1,32.5,3.3c0.6,0.1,1.2,0.2,1.8,0.4c9.9,2.2,19.3,5.2,28.1,9.1c35.6,15.7,60.3,44.3,63.2,77.5
				C314.1,367.1,314.2,369.3,314.2,371.6z"/>
			<path fill="#F1553C" d="M313.9,377H62.5c-1.2,0-2.2-0.8-2.5-1.9c0-0.1-0.1-0.3-0.1-0.4c-0.2-1-0.2-2-0.2-3.1
				c0-17.5,5.9-34.8,17.2-49.8c10.8-14.5,26.4-26.8,44.9-35.5c9.4-4.4,19.5-7.9,30-10.3c0.2-0.1,0.4-0.1,0.7-0.2l0.2-0.1
				c11.5-2.6,23.4-3.8,35.5-3.8c11.2,0,22.3,1.1,33,3.3c0.6,0.1,1.2,0.3,1.9,0.4c10,2.2,19.6,5.3,28.6,9.2
				c37.6,16.5,61.8,46.3,64.8,79.6c0.2,2.3,0.3,4.6,0.3,7c0,1.1-0.1,2.1-0.3,3.1c0,0.1,0,0.2-0.1,0.3
				C316.1,376.2,315.1,377,313.9,377z M64.9,371.9h246.8c0-0.1,0-0.2,0-0.3c0-2.2-0.1-4.5-0.3-6.6c-2.8-31.5-25.9-59.7-61.7-75.4
				c-8.7-3.8-18-6.8-27.6-8.9c-0.6-0.1-1.2-0.3-1.8-0.4c-10.4-2.1-21.1-3.2-32-3.2c-11.7,0-23.2,1.3-34.4,3.7l-0.2,0.1
				c-0.2,0-0.3,0.1-0.5,0.1h-0.1c-10.1,2.3-19.9,5.6-29,9.9c-37,17.3-59.1,47.5-59.1,80.7C64.9,371.7,64.9,371.8,64.9,371.9z"/>
		</g>
		<g>
			<path fill="#FFFFFF" d="M152.5,245.8v42.4c0,8.4,15.7,15.3,35,15.3c19.4,0,35-6.8,35-15.3v-42.4H152.5z"/>
			<path fill="#F1553C" d="M187.5,305.9c-21.4,0-37.6-7.6-37.6-17.8v-42.4c0-1.4,1.1-2.5,2.5-2.5h70.1c1.4,0,2.5,1.1,2.5,2.5v42.4
				C225.1,298.3,208.9,305.9,187.5,305.9z M155,248.3v39.8c0,6,13.3,12.7,32.5,12.7s32.5-6.7,32.5-12.7v-39.8H155z"/>
		</g>
		<g>
			<ellipse fill="#FFFFFF" cx="186.4" cy="199.1" rx="85.6" ry="85.9"/>
			<path fill="#F1553C" d="M186.4,287.6c-48.6,0-88.1-39.7-88.1-88.4s39.5-88.4,88.1-88.4s88.1,39.7,88.1,88.4
				S235,287.6,186.4,287.6z M186.4,115.8c-45.8,0-83,37.4-83,83.4s37.3,83.4,83,83.4c45.8,0,83-37.4,83-83.4
				S232.2,115.8,186.4,115.8z"/>
		</g>
		<g>
			<path fill="#FFFFFF" d="M270.1,157.5c-64.7,0-130,0-166.7,0c0-49.1,37.3-88.9,83.4-88.9S270.1,108.3,270.1,157.5z"/>
			<path fill="#F1553C" d="M270.1,160L270.1,160H103.4c-1.4,0-2.5-1.1-2.5-2.5c0-50.4,38.5-91.5,85.9-91.5
				c47.3,0,85.7,40.9,85.9,91.2c0,0.1,0,0.2,0,0.3C272.7,158.9,271.5,160,270.1,160z M106,154.9h161.6c-1.3-46.5-37-83.9-80.8-83.9
				C143,71.1,107.2,108.4,106,154.9z"/>
		</g>
		<g>
			<path fill="#F1553C" d="M193.4,224.5c-1.4,0-2.5-1.1-2.5-2.5c0-3.2-3.1-5.9-6.8-5.9s-6.8,2.6-6.8,5.9c0,1.4-1.1,2.5-2.5,2.5
				s-2.5-1.1-2.5-2.5c0-6,5.3-11,11.9-11s11.9,4.9,11.9,11C196,223.3,194.8,224.5,193.4,224.5z"/>
		</g>
		<g>
			<path fill="#F1553C" d="M204.1,253.1H164c-1.4,0-2.5-1.1-2.5-2.5s1.1-2.5,2.5-2.5h40.1c1.4,0,2.5,1.1,2.5,2.5
				S205.5,253.1,204.1,253.1z"/>
		</g>
		<g>
			<path fill="#F1553C" d="M199.8,261.5h-15.9c-1.4,0-2.5-1.1-2.5-2.5s1.1-2.5,2.5-2.5h15.9c1.4,0,2.5,1.1,2.5,2.5
				S201.2,261.5,199.8,261.5z"/>
		</g>
		<g>
			<path fill="#FFFFFF" d="M376.3,335.4v26.9l0,0v12.2h-37.2v-0.1h-7.3v-39H376.3z"/>
			<path fill="#F1553C" d="M376.3,377h-37.2c-0.3,0-0.5,0-0.8-0.1h-6.6c-1.4,0-2.5-1.1-2.5-2.5v-39c0-1.4,1.1-2.5,2.5-2.5h44.6
				c1.4,0,2.5,1.1,2.5,2.5v39.1C378.8,375.9,377.7,377,376.3,377z M339.8,371.9h33.9v-34h-39.5v33.9h4.8
				C339.3,371.8,339.6,371.8,339.8,371.9z"/>
		</g>
		<g>
			<path fill="#FFFFFF" d="M376.3,362.3v12.2h-37.2v-0.1c-0.2-1.2,0-2.5,0.5-3.8c1.5-3.7,5.7-5.5,9.4-3.9c-3.7-1.5-5.5-5.7-3.9-9.4
				c1.5-3.7,5.7-5.5,9.4-3.9L376.3,362.3z"/>
			<path fill="#F1553C" d="M376.3,377h-37.2c-1.2,0-2.3-0.9-2.5-2.1c0-0.1,0-0.2-0.1-0.3c-0.2-1.7,0-3.4,0.6-5
				c1.1-2.6,3.2-4.6,5.7-5.5c-0.1-0.1-0.1-0.3-0.2-0.4c-1-2.4-1-5.1,0-7.5c1.5-3.7,5-6.1,9-6.1c1.3,0,2.5,0.2,3.7,0.7l21.9,9
				c1,0.4,1.6,1.3,1.6,2.4v12.3C378.8,375.9,377.7,377,376.3,377z M341.7,371.9h32v-8l-20.3-8.3c-0.6-0.2-1.2-0.4-1.8-0.4
				c-1.9,0-3.6,1.1-4.3,2.9c-0.5,1.2-0.5,2.4,0,3.6c0.5,1.2,1.4,2,2.5,2.5c1,0.4,1.6,1.4,1.6,2.4c0,0.3-0.1,0.6-0.2,1
				c-0.5,1.3-2,1.9-3.3,1.4c-0.6-0.2-1.2-0.4-1.8-0.4c-1.9,0-3.6,1.1-4.3,2.9C341.8,371.6,341.7,371.8,341.7,371.9z"/>
		</g>
		<g>
			<path fill="#FFFFFF" d="M273.2,179.6H100.3c-1.4,0-2.5-1.1-2.5-2.5v-26.5c0-1.4,1.1-2.5,2.5-2.5h172.9c1.4,0,2.5,1.1,2.5,2.5
				v26.5C275.7,178.5,274.6,179.6,273.2,179.6z"/>
			<path fill="#F1553C" d="M273.2,182.2H100.3c-2.8,0-5.1-2.3-5.1-5.1v-26.5c0-2.8,2.3-5.1,5.1-5.1h172.9c2.8,0,5.1,2.3,5.1,5.1
				v26.5C278.3,179.9,276,182.2,273.2,182.2z M273.2,150.6H100.3v26.5h172.9V150.6z"/>
		</g>
		<g>
			<g>
				<path fill="#F1553C" d="M111.6,174.2c-1.4,0-2.5-1.1-2.5-2.5v-17.2c0-1.4,1.1-2.5,2.5-2.5s2.5,1.1,2.5,2.5v17.2
					C114.1,173.1,113,174.2,111.6,174.2z"/>
			</g>
			<g>
				<path fill="#F1553C" d="M125.3,174.2c-1.4,0-2.5-1.1-2.5-2.5v-17.2c0-1.4,1.1-2.5,2.5-2.5s2.5,1.1,2.5,2.5v17.2
					C127.8,173.1,126.7,174.2,125.3,174.2z"/>
			</g>
			<g>
				<path fill="#F1553C" d="M138.9,174.2c-1.4,0-2.5-1.1-2.5-2.5v-17.2c0-1.4,1.1-2.5,2.5-2.5s2.5,1.1,2.5,2.5v17.2
					C141.5,173.1,140.3,174.2,138.9,174.2z"/>
			</g>
			<g>
				<path fill="#F1553C" d="M152.6,174.2c-1.4,0-2.5-1.1-2.5-2.5v-17.2c0-1.4,1.1-2.5,2.5-2.5s2.5,1.1,2.5,2.5v17.2
					C155.1,173.1,154,174.2,152.6,174.2z"/>
			</g>
			<g>
				<path fill="#F1553C" d="M166.3,174.2c-1.4,0-2.5-1.1-2.5-2.5v-17.2c0-1.4,1.1-2.5,2.5-2.5s2.5,1.1,2.5,2.5v17.2
					C168.8,173.1,167.7,174.2,166.3,174.2z"/>
			</g>
			<g>
				<path fill="#F1553C" d="M179.9,174.2c-1.4,0-2.5-1.1-2.5-2.5v-17.2c0-1.4,1.1-2.5,2.5-2.5s2.5,1.1,2.5,2.5v17.2
					C182.5,173.1,181.3,174.2,179.9,174.2z"/>
			</g>
			<g>
				<path fill="#F1553C" d="M193.6,174.2c-1.4,0-2.5-1.1-2.5-2.5v-17.2c0-1.4,1.1-2.5,2.5-2.5s2.5,1.1,2.5,2.5v17.2
					C196.1,173.1,195,174.2,193.6,174.2z"/>
			</g>
			<g>
				<path fill="#F1553C" d="M207.2,174.2c-1.4,0-2.5-1.1-2.5-2.5v-17.2c0-1.4,1.1-2.5,2.5-2.5s2.5,1.1,2.5,2.5v17.2
					C209.8,173.1,208.7,174.2,207.2,174.2z"/>
			</g>
			<g>
				<path fill="#F1553C" d="M220.9,174.2c-1.4,0-2.5-1.1-2.5-2.5v-17.2c0-1.4,1.1-2.5,2.5-2.5s2.5,1.1,2.5,2.5v17.2
					C223.5,173.1,222.3,174.2,220.9,174.2z"/>
			</g>
			<g>
				<path fill="#F1553C" d="M234.6,174.2c-1.4,0-2.5-1.1-2.5-2.5v-17.2c0-1.4,1.1-2.5,2.5-2.5s2.5,1.1,2.5,2.5v17.2
					C237.1,173.1,236,174.2,234.6,174.2z"/>
			</g>
			<g>
				<path fill="#F1553C" d="M248.2,174.2c-1.4,0-2.5-1.1-2.5-2.5v-17.2c0-1.4,1.1-2.5,2.5-2.5s2.5,1.1,2.5,2.5v17.2
					C250.8,173.1,249.6,174.2,248.2,174.2z"/>
			</g>
			<g>
				<path fill="#F1553C" d="M261.9,174.2c-1.4,0-2.5-1.1-2.5-2.5v-17.2c0-1.4,1.1-2.5,2.5-2.5s2.5,1.1,2.5,2.5v17.2
					C264.5,173.1,263.3,174.2,261.9,174.2z"/>
			</g>
		</g>
		<g>
			<circle fill="#FFFFFF" cx="156.4" cy="194.8" r="7.6"/>
			<path fill="#F1553C" d="M156.4,205c-5.6,0-10.1-4.5-10.1-10.1s4.5-10.1,10.1-10.1s10.1,4.5,10.1,10.1
				C166.5,200.4,162,205,156.4,205z M156.4,189.8c-2.8,0-5.1,2.3-5.1,5c0,2.8,2.3,5,5.1,5s5.1-2.3,5.1-5
				C161.4,192,159.2,189.8,156.4,189.8z"/>
		</g>
		<g>
			<circle fill="#FFFFFF" cx="220.1" cy="194.8" r="7.6"/>
			<path fill="#F1553C" d="M220.1,205c-5.6,0-10.1-4.5-10.1-10.1s4.5-10.1,10.1-10.1s10.1,4.5,10.1,10.1
				C230.2,200.4,225.7,205,220.1,205z M220.1,189.8c-2.8,0-5,2.3-5,5c0,2.8,2.3,5,5,5s5-2.3,5-5C225.2,192,222.9,189.8,220.1,189.8z
				"/>
		</g>
		<g>
			<path fill="#F1553C" d="M119.4,143c-1.4,0-2.5-1.1-2.5-2.5v-13.9c0-1.4,1.1-2.5,2.5-2.5s2.5,1.1,2.5,2.5v13.9
				C121.9,141.8,120.8,143,119.4,143z"/>
		</g>
		<g>
			<path fill="#F1553C" d="M135.5,143c-1.4,0-2.5-1.1-2.5-2.5v-26.6c0-1.4,1.1-2.5,2.5-2.5s2.5,1.1,2.5,2.5v26.6
				C138.1,141.8,136.9,143,135.5,143z"/>
		</g>
		<g>
			<path fill="#F1553C" d="M151.7,143c-1.4,0-2.5-1.1-2.5-2.5v-39.3c0-1.4,1.1-2.5,2.5-2.5s2.5,1.1,2.5,2.5v39.3
				C154.2,141.8,153.1,143,151.7,143z"/>
		</g>
		<g>
			<path fill="#F1553C" d="M167.9,143c-1.4,0-2.5-1.1-2.5-2.5v-52c0-1.4,1.1-2.5,2.5-2.5s2.5,1.1,2.5,2.5v52
				C170.4,141.8,169.3,143,167.9,143z"/>
		</g>
		<g>
			<path fill="#F1553C" d="M184,143c-1.4,0-2.5-1.1-2.5-2.5V75.8c0-1.4,1.1-2.5,2.5-2.5s2.5,1.1,2.5,2.5v64.7
				C186.6,141.8,185.4,143,184,143z"/>
		</g>
		<g>
			<path fill="#F1553C" d="M248.9,143c-1.4,0-2.5-1.1-2.5-2.5v-13.9c0-1.4,1.1-2.5,2.5-2.5s2.5,1.1,2.5,2.5v13.9
				C251.4,141.8,250.3,143,248.9,143z"/>
		</g>
		<g>
			<path fill="#F1553C" d="M232.7,143c-1.4,0-2.5-1.1-2.5-2.5v-26.6c0-1.4,1.1-2.5,2.5-2.5s2.5,1.1,2.5,2.5v26.6
				C235.2,141.8,234.1,143,232.7,143z"/>
		</g>
		<g>
			<path fill="#F1553C" d="M216.5,143c-1.4,0-2.5-1.1-2.5-2.5v-39.3c0-1.4,1.1-2.5,2.5-2.5s2.5,1.1,2.5,2.5v39.3
				C219.1,141.8,217.9,143,216.5,143z"/>
		</g>
		<g>
			<path fill="#F1553C" d="M200.4,143c-1.4,0-2.5-1.1-2.5-2.5v-52c0-1.4,1.1-2.5,2.5-2.5s2.5,1.1,2.5,2.5v52
				C202.9,141.8,201.8,143,200.4,143z"/>
		</g>
		<g>
			<path fill="#F1553C" d="M186.2,323.3c-52,0-94.3-53.2-94.3-118.7c0-1.4,1.1-2.5,2.5-2.5s2.5,1.1,2.5,2.5
				c0,62.6,40,113.6,89.2,113.6s89.3-50.9,89.3-113.6c0-1.4,1.1-2.5,2.5-2.5s2.5,1.1,2.5,2.5C280.5,270.1,238.2,323.3,186.2,323.3z"
				/>
		</g>
		<g>
			<path fill="#FFFFFF" d="M97,208.6h-3.2c-2.1,0-3.8-1.7-3.8-3.8v-9.9c0-2.1,1.7-3.8,3.8-3.8H97c2.1,0,3.8,1.7,3.8,3.8v9.9
				C100.8,206.9,99.1,208.6,97,208.6z"/>
			<path fill="#F1553C" d="M97,211.1h-3.2c-3.5,0-6.4-2.9-6.4-6.4v-9.9c0-3.5,2.9-6.4,6.4-6.4H97c3.5,0,6.4,2.9,6.4,6.4v9.9
				C103.4,208.3,100.5,211.1,97,211.1z M93.8,193.5c-0.7,0-1.3,0.6-1.3,1.3v9.9c0,0.7,0.6,1.3,1.3,1.3H97c0.7,0,1.3-0.6,1.3-1.3
				v-9.9c0-0.7-0.6-1.3-1.3-1.3H93.8z"/>
		</g>
		<g>
			<path fill="#FFFFFF" d="M278.9,208.6h-3.2c-2.1,0-3.8-1.7-3.8-3.8v-9.9c0-2.1,1.7-3.8,3.8-3.8h3.2c2.1,0,3.8,1.7,3.8,3.8v9.9
				C282.7,206.9,281,208.6,278.9,208.6z"/>
			<path fill="#F1553C" d="M278.9,211.1h-3.2c-3.5,0-6.4-2.9-6.4-6.4v-9.9c0-3.5,2.9-6.4,6.4-6.4h3.2c3.5,0,6.4,2.9,6.4,6.4v9.9
				C285.3,208.3,282.4,211.1,278.9,211.1z M275.7,193.5c-0.7,0-1.3,0.6-1.3,1.3v9.9c0,0.7,0.6,1.3,1.3,1.3h3.2
				c0.7,0,1.3-0.6,1.3-1.3v-9.9c0-0.7-0.6-1.3-1.3-1.3H275.7z"/>
		</g>
		<g>
			<path fill="#F1553C" d="M331.7,367.4H198.1c-7.5,0-13.6-5.7-14.4-13c0-0.2-0.1-0.4-0.1-0.6v-33c0-1.4,1.1-2.5,2.5-2.5
				s2.5,1.1,2.5,2.5V353c0,5.2,4.2,9.4,9.4,9.4h133.5c1.4,0,2.5,1.1,2.5,2.5S333.1,367.4,331.7,367.4z"/>
		</g>
	</g>
	<g>
		<rect x="2.5" y="2.5" fill="none" width="373.7" height="371.8"/>
	</g>
	<g>
		<path fill="#F1553C" d="M376.3,376.9H2.5c-1.4,0-2.5-1.1-2.5-2.5V2.5C0,1.1,1.1,0,2.5,0h373.7c1.4,0,2.5,1.1,2.5,2.5v371.8
			C378.8,375.7,377.7,376.9,376.3,376.9z M5.1,371.8h368.6V5.1H5.1V371.8z"/>
	</g>
</g>
</svg>
