<?xml version="1.0" encoding="utf-8"?>
<!-- Generator: Adobe Illustrator 18.1.1, SVG Export Plug-In . SVG Version: 6.00 Build 0)  -->
<svg version="1.1" id="Layer_1" xmlns="http://www.w3.org/2000/svg" xmlns:xlink="http://www.w3.org/1999/xlink" x="0px" y="0px"
	 viewBox="0 0 378.7 376.9" enable-background="new 0 0 378.7 376.9" xml:space="preserve">
<g>
	<g>
		<rect x="1.9" y="2.5" fill="#FFFFFF" width="373.7" height="371.8"/>
	</g>
	<g>
		<path fill="#F1553C" d="M376.3,376.9H2.5c-1.4,0-2.5-1.1-2.5-2.5V2.5C0,1.1,1.1,0,2.5,0h373.7c1.4,0,2.5,1.1,2.5,2.5v371.8
			C378.8,375.7,377.7,376.9,376.3,376.9z M5.1,371.8h368.6V5H5.1V371.8z"/>
	</g>
	<g>
		<path fill="#FFFFFF" d="M161.9,315.9c0,0-39.9,29.7-59.4,29.7s-59.4-29.7-59.4-29.7s39.9-29.7,59.4-29.7S161.9,315.9,161.9,315.9z
			"/>
		<path fill="#F1553C" d="M102.4,348.1c-20.1,0-59.3-28.9-61-30.2c-0.6-0.5-1-1.2-1-2s0.4-1.6,1-2c1.7-1.2,40.8-30.2,61-30.2
			c20.1,0,59.3,28.9,61,30.2c0.6,0.5,1,1.2,1,2s-0.4,1.6-1,2C161.7,319.2,122.6,348.1,102.4,348.1z M47.3,315.9
			c3.8,2.7,11.1,7.7,19.4,12.7c15.8,9.5,28.2,14.4,35.7,14.4s19.9-5,35.7-14.4c8.3-5,15.6-10,19.4-12.7c-3.8-2.7-11.1-7.7-19.4-12.7
			c-15.8-9.5-28.2-14.4-35.7-14.4s-19.9,5-35.7,14.4C58.4,308.2,51.2,313.2,47.3,315.9z"/>
	</g>
	<g>
		<path fill="#FFFFFF" d="M172.5,331.5c2.9,13.6,5.2,29.7,2.9,39.3c-0.1,0.6-0.3,1.3-0.5,1.9"/>
		<path fill="#F1553C" d="M174.9,375.2c-0.3,0-0.5,0-0.8-0.1c-1.3-0.4-2.1-1.8-1.7-3.2c0.2-0.6,0.3-1.2,0.5-1.7
			c1.8-7.5,0.8-20.7-2.9-38.2c-0.3-1.4,0.6-2.7,2-3s2.7,0.6,3,2c3.9,18.5,4.9,32.1,2.9,40.4c-0.2,0.7-0.3,1.4-0.6,2.1
			C177,374.5,176,375.2,174.9,375.2z"/>
	</g>
	<g>
		<circle fill="#FFFFFF" cx="102.4" cy="315.9" r="12.8"/>
		<path fill="#F1553C" d="M102.4,331.3c-8.5,0-15.4-6.9-15.4-15.4s6.9-15.4,15.4-15.4s15.4,6.9,15.4,15.4S110.9,331.3,102.4,331.3z
			 M102.4,305.7c-5.7,0-10.3,4.6-10.3,10.3s4.6,10.3,10.3,10.3s10.3-4.6,10.3-10.3C112.7,310.3,108.1,305.7,102.4,305.7z"/>
	</g>
	<g>
		<path fill="#FFFFFF" d="M97.6,315.9c0-2.7,2.2-4.8,4.8-4.8"/>
		<path fill="#F1553C" d="M97.6,318.5c-1.4,0-2.5-1.1-2.5-2.5c0-4.1,3.3-7.4,7.4-7.4c1.4,0,2.5,1.1,2.5,2.5s-1.1,2.5-2.5,2.5
			c-1.3,0-2.3,1-2.3,2.3C100.2,317.3,99,318.5,97.6,318.5z"/>
	</g>
	<g>
		<path fill="#FFFFFF" d="M152,310.5c-1.2,1.5-1.9,3.4-1.9,5.4s0.7,3.9,1.9,5.4c6-3.1,9.8-5.4,9.8-5.4S158,313.7,152,310.5z"/>
		<path fill="#F1553C" d="M152,323.9c-0.8,0-1.5-0.3-2-1c-1.6-2-2.5-4.5-2.5-7s0.9-5,2.5-7c0.8-0.9,2.1-1.2,3.2-0.7
			c5.9,3.1,9.8,5.4,9.9,5.5c0.8,0.5,1.3,1.3,1.3,2.2s-0.5,1.7-1.3,2.2c-0.2,0.1-4,2.3-9.9,5.5C152.8,323.8,152.4,323.9,152,323.9z
			 M153,313.9c-0.2,0.6-0.3,1.3-0.3,2s0.1,1.4,0.3,2c1.4-0.7,2.6-1.4,3.7-2C155.6,315.4,154.4,314.7,153,313.9z"/>
	</g>
	<g>
		<path fill="#FFFFFF" d="M338.5,315.9c0,0-39.9,29.7-59.4,29.7s-59.4-29.7-59.4-29.7s39.9-29.7,59.4-29.7
			C298.6,286.3,338.5,315.9,338.5,315.9z"/>
		<path fill="#F1553C" d="M279.1,348.1c-20.1,0-59.3-28.9-61-30.2c-0.6-0.5-1-1.2-1-2s0.4-1.6,1-2c1.7-1.2,40.8-30.2,61-30.2
			s59.3,28.9,61,30.2c0.6,0.5,1,1.2,1,2s-0.4,1.6-1,2C338.4,319.2,299.2,348.1,279.1,348.1z M224,315.9c3.8,2.7,11.1,7.7,19.4,12.7
			c15.8,9.5,28.2,14.4,35.7,14.4s19.9-5,35.7-14.4c8.3-5,15.6-10,19.4-12.7c-3.8-2.7-11.1-7.7-19.4-12.7
			c-15.8-9.5-28.2-14.4-35.7-14.4s-19.9,5-35.7,14.4C235,308.2,227.8,313.2,224,315.9z"/>
	</g>
	<g>
		<path fill="#FFFFFF" d="M229.5,321.3c1.2-1.5,1.9-3.4,1.9-5.4s-0.7-3.9-1.9-5.4c-6,3.1-9.8,5.4-9.8,5.4S223.5,318.2,229.5,321.3z"
			/>
		<path fill="#F1553C" d="M229.5,323.9c-0.4,0-0.8-0.1-1.2-0.3c-5.9-3.1-9.8-5.4-9.9-5.5c-0.8-0.5-1.3-1.3-1.3-2.2s0.5-1.7,1.3-2.2
			c0.2-0.1,4-2.3,9.9-5.5c1.1-0.6,2.4-0.3,3.2,0.7c1.6,2,2.5,4.5,2.5,7s-0.9,5-2.5,7C230.9,323.6,230.2,323.9,229.5,323.9z
			 M224.8,315.9c1.1,0.6,2.3,1.3,3.7,2c0.2-0.6,0.3-1.3,0.3-2s-0.1-1.4-0.3-2C227.1,314.7,225.8,315.4,224.8,315.9z"/>
	</g>
	<g>
		<path fill="#F1553C" d="M35.8,287.1c-3-0.7-5.6-3-6.5-6.2c-1.4-4.8,1.3-9.8,6.1-11.2l99.9-29.5c4.8-1.4,9.8,1.3,11.2,6.1
			c1.4,4.8-1.3,9.8-6.1,11.2L40.5,287C39,287.4,37.3,287.4,35.8,287.1z"/>
	</g>
	<g>
		<path fill="#F1553C" d="M43.2,28.9V15.1H48v13.4c0,2.6,1.5,3.9,3.8,3.9s3.8-1.3,3.8-3.9V15.1h4.8v13.8c0,5.4-3.8,8.3-8.6,8.3
			C47,37.2,43.2,34.3,43.2,28.9z"/>
		<path fill="#F1553C" d="M64.4,36.7V21.5h4.4v1.7c0.8-1.3,2.7-2.2,4.4-2.2c2.2,0,3.7,0.9,4.5,2.4c1.2-1.7,2.7-2.4,4.7-2.4
			c2.9,0,5.6,1.7,5.6,5.8v9.8h-4.5v-8.8c0-1.4-0.8-2.6-2.4-2.6s-2.5,1.3-2.5,2.6v8.8H74v-8.8c0-1.4-0.8-2.6-2.4-2.6
			c-1.6,0-2.5,1.3-2.5,2.6v8.7h-4.7V36.7z"/>
		<path fill="#F1553C" d="M91.9,36.7V21.5h4.4v1.7c0.8-1.3,2.7-2.2,4.4-2.2c2.2,0,3.7,0.9,4.5,2.4c1.2-1.7,2.7-2.4,4.7-2.4
			c2.9,0,5.6,1.7,5.6,5.8v9.8H111v-8.8c0-1.4-0.8-2.6-2.4-2.6s-2.5,1.3-2.5,2.6v8.8h-4.6v-8.8c0-1.4-0.8-2.6-2.4-2.6
			c-1.6,0-2.5,1.3-2.5,2.6v8.7h-4.7V36.7z"/>
		<path fill="#F1553C" d="M119.4,36.7V21.5h4.4v1.7c0.8-1.3,2.7-2.2,4.4-2.2c2.2,0,3.7,0.9,4.5,2.4c1.2-1.7,2.7-2.4,4.7-2.4
			c2.9,0,5.6,1.7,5.6,5.8v9.8h-4.5v-8.8c0-1.4-0.8-2.6-2.4-2.6c-1.6,0-2.5,1.3-2.5,2.6v8.8H129v-8.8c0-1.4-0.8-2.6-2.4-2.6
			c-1.6,0-2.5,1.3-2.5,2.6v8.7h-4.7V36.7z"/>
		<path fill="#F1553C" d="M149.8,30.7c1.7,0,3.1,1.4,3.1,3.1c0,1.7-1.4,3.1-3.1,3.1s-3.1-1.5-3.1-3.1
			C146.7,32.1,148.1,30.7,149.8,30.7z"/>
		<path fill="#F1553C" d="M159.8,30.7c1.7,0,3.1,1.4,3.1,3.1c0,1.7-1.4,3.1-3.1,3.1s-3.1-1.5-3.1-3.1
			C156.7,32.1,158.1,30.7,159.8,30.7z"/>
		<path fill="#F1553C" d="M169.8,30.7c1.7,0,3.1,1.4,3.1,3.1c0,1.7-1.4,3.1-3.1,3.1s-3.1-1.5-3.1-3.1
			C166.7,32.1,168.1,30.7,169.8,30.7z"/>
	</g>
	<g>
		<path fill="#F1553C" d="M176,106.4c2.5-3.8,6.7-6.5,12.8-6.5c6.2,0,10.4,2.7,12.9,6.5c2.6,4,3.3,8.7,3.3,13.3
			c0,4.7-0.7,9.4-3.3,13.3c-2.5,3.7-6.7,6.5-12.9,6.5c-6.1,0-10.3-2.7-12.8-6.5c-2.6-4-3.3-8.7-3.3-13.3S173.4,110.4,176,106.4z
			 M183.3,128c1,2.1,2.7,3.5,5.5,3.5c2.9,0,4.5-1.4,5.5-3.5c1.1-2.2,1.5-5.2,1.5-8.2s-0.3-6-1.5-8.2c-1-2.1-2.7-3.5-5.5-3.5
			s-4.5,1.4-5.5,3.5c-1,2.2-1.4,5.2-1.4,8.2S182.2,125.8,183.3,128z"/>
		<path fill="#F1553C" d="M172.1,169.6l-8.8-14v14h-4.7v-21.2h5.8l8,12.9v-12.9h4.7v21.2H172.1z"/>
		<path fill="#F1553C" d="M194.8,165.3c-0.7,2.6-3.1,4.7-6.9,4.7c-4.1,0-7.8-2.9-7.8-7.9c0-4.8,3.6-7.9,7.4-7.9
			c4.6,0,7.5,2.8,7.5,7.6c0,0.6-0.1,1.3-0.1,1.4h-10.4c0.1,1.7,1.6,2.9,3.4,2.9c1.6,0,2.6-0.8,3-1.9L194.8,165.3z M190.7,160.4
			c-0.1-1.1-0.8-2.5-3-2.5c-1.9,0-2.9,1.4-3,2.5H190.7z"/>
		<path fill="#F1553C" d="M211,154.7l2.9,8.8l2.5-8.8h4.5l-4.6,14.9h-4.5l-3.2-9.6l-3.2,9.6h-4.6l-4.7-14.9h4.7l2.5,8.8l2.9-8.8H211
			z"/>
		<path fill="#F1553C" d="M158.5,185.8c-0.1-1-1-2.7-3.5-2.7c-1.8,0-2.9,1.1-2.9,2.3c0,1,0.6,1.8,2.1,2l2.8,0.5
			c4,0.7,6.1,3.4,6.1,6.4c0,3.3-2.8,6.7-7.9,6.7c-5.9,0-8.4-3.8-8.7-6.8l4.3-1c0.2,1.9,1.5,3.7,4.4,3.7c1.9,0,3-0.9,3-2.2
			c0-1.1-0.9-1.9-2.3-2.1l-2.9-0.5c-3.6-0.7-5.8-3.1-5.8-6.2c0-4,3.5-6.8,7.6-6.8c5.3,0,7.3,3.2,7.8,5.7L158.5,185.8z"/>
		<path fill="#F1553C" d="M180.8,193.1c0,4.6-3.4,7.9-7.9,7.9c-4.4,0-7.9-3.3-7.9-7.9s3.5-7.9,7.9-7.9
			C177.4,185.2,180.8,188.5,180.8,193.1z M176.3,193.1c0-2.5-1.6-3.7-3.4-3.7c-1.7,0-3.4,1.2-3.4,3.7s1.6,3.7,3.4,3.7
			C174.6,196.8,176.3,195.6,176.3,193.1z"/>
		<path fill="#F1553C" d="M188.3,200.6h-4.6v-14.9h4.4v1.7c0.8-1.4,2.6-2.1,4.2-2.1c3.7,0,5.4,2.7,5.4,5.9v9.4h-4.6V192
			c0-1.5-0.8-2.6-2.4-2.6c-1.5,0-2.5,1.1-2.5,2.6v8.6H188.3z"/>
		<path fill="#F1553C" d="M204.6,200.3c0.3,1.4,1.5,2.5,3.2,2.5c2.3,0,3.7-1.1,3.7-3.8v-0.7c-0.5,0.8-1.8,1.7-4,1.7
			c-4,0-6.9-3.1-6.9-7.3c0-3.9,2.8-7.3,6.9-7.3c2.4,0,3.7,1.1,4.1,1.9v-1.6h4.3v13c0,4.3-2.4,8-8,8c-4.3,0-7-2.6-7.4-5.3
			L204.6,200.3z M211.5,192.7c0-2-1.5-3.3-3.2-3.3s-3.2,1.3-3.2,3.3s1.4,3.3,3.2,3.3C210.2,196,211.5,194.7,211.5,192.7z"/>
		<path fill="#F1553C" d="M222.4,195.7c0.1,1,0.8,2,2.3,2c1.2,0,1.7-0.6,1.7-1.3c0-0.5-0.4-1-1.5-1.2l-1.7-0.4
			c-3.2-0.7-4.4-2.5-4.4-4.6c0-2.7,2.4-4.9,5.7-4.9c4.3,0,5.8,2.7,6,4.4l-3.8,0.7c-0.1-1-0.7-1.8-2.1-1.8c-0.9,0-1.6,0.5-1.6,1.3
			c0,0.6,0.5,1,1.2,1.1l2,0.4c3.1,0.6,4.6,2.5,4.6,4.7c0,2.5-1.9,5-5.9,5c-4.7,0-6.2-3-6.3-4.7L222.4,195.7z"/>
	</g>
	<g>
		<path fill="#F1553C" d="M375.7,220.2H2.5c-1.4,0-2.5-1.1-2.5-2.5V2.5C0,1.1,1.1,0,2.5,0h373.1c1.4,0,2.5,1.1,2.5,2.5v215.2
			C378.2,219.1,377.1,220.2,375.7,220.2z M5.1,215.1h368V5H5.1V215.1z"/>
	</g>
	<g>
		<path fill="#F1553C" d="M279.1,347.8c-17.6,0-31.9-14.3-31.9-31.9c0-17.6,14.3-31.9,31.9-31.9s31.9,14.3,31.9,31.9
			C310.9,333.5,296.6,347.8,279.1,347.8z M279.1,289.2c-14.8,0-26.8,12-26.8,26.8s12,26.8,26.8,26.8s26.8-12,26.8-26.8
			C305.8,301.2,293.8,289.2,279.1,289.2z"/>
	</g>
	<g>
		<path fill="#F1553C" d="M102.4,347.8c-17.6,0-31.9-14.3-31.9-31.9c0-17.6,14.3-31.9,31.9-31.9s31.9,14.3,31.9,31.9
			C134.3,333.5,120,347.8,102.4,347.8z M102.4,289.2c-14.8,0-26.8,12-26.8,26.8s12,26.8,26.8,26.8s26.8-12,26.8-26.8
			S117.2,289.2,102.4,289.2z"/>
	</g>
	<g>
		<circle fill="#FFFFFF" cx="279.1" cy="315.9" r="12.8"/>
		<path fill="#F1553C" d="M279.1,331.3c-8.5,0-15.4-6.9-15.4-15.4s6.9-15.4,15.4-15.4s15.4,6.9,15.4,15.4
			C294.4,324.4,287.5,331.3,279.1,331.3z M279.1,305.7c-5.7,0-10.3,4.6-10.3,10.3s4.6,10.3,10.3,10.3s10.3-4.6,10.3-10.3
			C289.3,310.3,284.7,305.7,279.1,305.7z"/>
	</g>
	<g>
		<path fill="#FFFFFF" d="M274.2,315.9c0-2.7,2.2-4.8,4.8-4.8"/>
		<path fill="#F1553C" d="M274.2,318.5c-1.4,0-2.5-1.1-2.5-2.5c0-4.1,3.3-7.4,7.4-7.4c1.4,0,2.5,1.1,2.5,2.5s-1.1,2.5-2.5,2.5
			c-1.3,0-2.3,1-2.3,2.3C276.8,317.3,275.6,318.5,274.2,318.5z"/>
	</g>
	<g>
		<path fill="#F1553C" d="M336.6,287.1c3-0.7,5.6-3,6.5-6.2c1.4-4.8-1.3-9.8-6.1-11.2l-99.9-29.6c-4.8-1.4-9.8,1.3-11.2,6.1
			c-1.4,4.8,1.3,9.8,6.1,11.2l99.9,29.5C333.5,287.4,335.1,287.4,336.6,287.1z"/>
	</g>
	<g>
		<path fill="#F1553C" d="M272.3,220.3h-167c-1.4,0-2.5-1.1-2.5-2.5V68.9c0-12.4,10.1-22.5,22.5-22.5h127
			c12.4,0,22.5,10.1,22.5,22.5v148.9C274.9,219.2,273.7,220.3,272.3,220.3z M107.9,215.2h161.9V68.9c0-9.6-7.8-17.5-17.5-17.5h-127
			c-9.6,0-17.5,7.8-17.5,17.5L107.9,215.2L107.9,215.2z"/>
	</g>
	<g>
		<path fill="#F1553C" d="M262.4,220.3H115.3c-1.4,0-2.5-1.1-2.5-2.5V79.6c0-1.4,1.1-2.5,2.5-2.5h147.1c1.4,0,2.5,1.1,2.5,2.5v138.2
			C264.9,219.2,263.8,220.3,262.4,220.3z M117.8,215.2h142V82.1h-142L117.8,215.2L117.8,215.2z"/>
	</g>
	<g>
		<path fill="#F1553C" d="M201.1,71.1h-24.5c-1.4,0-2.5-1.1-2.5-2.5s1.1-2.5,2.5-2.5h24.5c1.4,0,2.5,1.1,2.5,2.5
			S202.5,71.1,201.1,71.1z"/>
	</g>
	<g>
		<circle fill="#F1553C" cx="162.1" cy="68.5" r="3.5"/>
	</g>
	<g>
		<circle fill="#F1553C" cx="188.8" cy="57.8" r="2"/>
	</g>
</g>
</svg>
