<?xml version="1.0" encoding="utf-8"?>
<!-- Generator: Adobe Illustrator 18.1.1, SVG Export Plug-In . SVG Version: 6.00 Build 0)  -->
<svg version="1.1" id="Layer_1" xmlns="http://www.w3.org/2000/svg" xmlns:xlink="http://www.w3.org/1999/xlink" x="0px" y="0px"
	 viewBox="0 0 378.8 376.9" enable-background="new 0 0 378.8 376.9" xml:space="preserve">
<g>
	<g>
		<rect x="2.5" y="2.5" fill="#FFFFFF" width="373.7" height="371.8"/>
	</g>
	<g>
		<g>
			<path fill="#FFFFFF" d="M314.1,371.6c0,0.9-0.1,1.8-0.2,2.7H62.5c-0.2-0.9-0.2-1.8-0.2-2.7c0-35.2,24.3-66,60.6-83
				c9.1-4.3,19.1-7.7,29.6-10.1c0.2-0.1,0.5-0.1,0.8-0.2c11.1-2.5,22.9-3.8,35-3.8c11.2,0,22,1.1,32.3,3.2c0.7,0.1,1.3,0.3,2,0.4
				c9.9,2.2,19.3,5.2,28.1,9.1c35.6,15.7,60.3,44.3,63.2,77.5C314,367,314.1,369.3,314.1,371.6z"/>
			<path fill="#F1553C" d="M313.9,376.9H62.5c-1.2,0-2.3-0.9-2.5-2.1c-0.2-1-0.3-2.1-0.3-3.1c0-17.5,5.9-34.8,17.2-49.8
				c10.8-14.5,26.3-26.8,44.9-35.5c9.4-4.4,19.5-7.9,30.1-10.3c0.3-0.1,0.5-0.1,0.8-0.2c11.5-2.6,23.4-3.9,35.5-3.9
				c11.2,0,22.2,1.1,32.8,3.3c0.6,0.1,1.3,0.3,2,0.4c10,2.2,19.6,5.3,28.6,9.3c37.6,16.5,61.8,46.3,64.7,79.6c0.2,2.3,0.3,4.6,0.3,7
				c0,1.1-0.1,2.1-0.3,3.1C316.2,376,315.2,376.9,313.9,376.9z M64.8,371.8h246.8c0-0.1,0-0.1,0-0.2c0-2.2-0.1-4.4-0.3-6.6
				c-2.8-31.5-25.9-59.7-61.7-75.4c-8.7-3.8-18-6.8-27.6-8.9c-0.6-0.1-1.2-0.3-1.9-0.4c-10.3-2.1-21-3.2-31.9-3.2
				c-11.7,0-23.3,1.3-34.5,3.7c-0.3,0.1-0.5,0.1-0.7,0.2c-10.2,2.3-20,5.7-29.1,9.9c-37,17.4-59.1,47.5-59.1,80.7
				C64.8,371.7,64.8,371.7,64.8,371.8z"/>
		</g>
		<g>
			<path fill="#FFFFFF" d="M152.4,245.7v42.4c0,8.4,15.7,15.3,35,15.3c19.4,0,35-6.8,35-15.3v-42.4H152.4z"/>
			<path fill="#F1553C" d="M187.4,305.9c-21.4,0-37.6-7.7-37.6-17.8v-42.4c0-1.4,1.1-2.5,2.5-2.5h70.1c1.4,0,2.5,1.1,2.5,2.5v42.4
				C225,298.2,208.9,305.9,187.4,305.9z M155,248.3v39.8c0,6,13.3,12.7,32.5,12.7s32.5-6.7,32.5-12.7v-39.8H155z"/>
		</g>
		<g>
			<ellipse fill="#FFFFFF" cx="186.2" cy="199.1" rx="85.6" ry="85.9"/>
			<path fill="#F1553C" d="M186.2,287.5c-48.6,0-88.1-39.7-88.1-88.4c0-48.8,39.5-88.4,88.1-88.4s88.1,39.7,88.1,88.4
				S234.8,287.5,186.2,287.5z M186.2,115.7c-45.8,0-83,37.4-83,83.4s37.3,83.4,83,83.4s83-37.4,83-83.4S232,115.7,186.2,115.7z"/>
		</g>
		<g>
			<path fill="#FFFFFF" d="M270.1,157.4c-64.7,0-130,0-166.7,0c0-49.1,37.3-88.9,83.4-88.9S270.1,108.3,270.1,157.4z"/>
			<path fill="#F1553C" d="M270.1,160L270.1,160H103.3c-1.4,0-2.5-1.1-2.5-2.5c0-50.4,38.5-91.5,85.9-91.5
				c47.3,0,85.7,40.9,85.9,91.2c0,0.1,0,0.2,0,0.3C272.6,158.8,271.5,160,270.1,160z M105.9,154.9h161.6
				c-1.3-46.5-37-83.9-80.8-83.9S107.2,108.4,105.9,154.9z"/>
		</g>
		<g>
			<path fill="#F1553C" d="M195.5,224.4c-1.4,0-2.5-1.1-2.5-2.5c0-3.2-3.1-5.9-6.8-5.9c-3.8,0-6.8,2.6-6.8,5.9
				c0,1.4-1.1,2.5-2.5,2.5s-2.5-1.1-2.5-2.5c0-6,5.3-11,11.9-11s11.9,4.9,11.9,11C198.1,223.3,197,224.4,195.5,224.4z"/>
		</g>
		<g>
			<path fill="#F1553C" d="M166.8,259.3c-0.4,0-0.7-0.1-1.1-0.2c-1.3-0.6-1.8-2.1-1.2-3.4c1.2-2.6,2.9-4.9,5.1-6.8s4.7-3.5,7.5-4.5
				c5.8-2.2,12.4-2.2,18.2,0c2.8,1.1,5.3,2.6,7.5,4.5c2.2,2,3.9,4.3,5.1,6.8c0.6,1.3,0.1,2.8-1.2,3.4c-1.3,0.6-2.8,0.1-3.4-1.2
				c-0.9-1.9-2.2-3.7-3.9-5.2c-1.7-1.5-3.7-2.7-5.9-3.6c-4.6-1.8-10-1.8-14.6,0c-2.2,0.8-4.2,2-5.9,3.6c-1.7,1.5-3,3.3-3.9,5.2
				C168.7,258.8,167.8,259.3,166.8,259.3z"/>
		</g>
		<g>
			<path fill="#F1553C" d="M194.1,261.4h-15.9c-1.4,0-2.5-1.1-2.5-2.5s1.1-2.5,2.5-2.5h15.9c1.4,0,2.5,1.1,2.5,2.5
				S195.5,261.4,194.1,261.4z"/>
		</g>
		<g>
			<path fill="#F1553C" d="M146.7,199.8c-1.1,0-2.1-0.7-2.4-1.8c-0.4-1.3,0.3-2.8,1.6-3.2l15.2-4.9c1.3-0.4,2.8,0.3,3.2,1.6
				s-0.3,2.8-1.6,3.2l-15.2,4.9C147.2,199.7,147,199.8,146.7,199.8z"/>
		</g>
		<g>
			<polygon fill="#FFFFFF" points="376.3,335.3 376.3,362.2 376.3,362.2 376.3,374.3 331.6,374.3 331.6,335.3 			"/>
			<path fill="#F1553C" d="M376.3,376.9h-44.7c-1.4,0-2.5-1.1-2.5-2.5v-39c0-1.4,1.1-2.5,2.5-2.5h44.7c1.4,0,2.5,1.1,2.5,2.5v39
				C378.8,375.7,377.7,376.9,376.3,376.9z M334.2,371.8h39.6v-33.9h-39.6V371.8z"/>
		</g>
		<g>
			<path fill="#FFFFFF" d="M376.3,362.2v12.1H339c-0.2-1.2,0-2.5,0.5-3.8c1.5-3.7,5.7-5.5,9.4-3.9c-3.7-1.5-5.5-5.7-3.9-9.4
				c1.5-3.7,5.7-5.4,9.4-3.9L376.3,362.2z"/>
			<path fill="#F1553C" d="M376.3,376.9H339c-1.3,0-2.3-0.9-2.5-2.2c-0.3-1.7,0-3.5,0.6-5.1c1.1-2.6,3.2-4.6,5.7-5.5
				c-1.1-2.4-1.3-5.2-0.2-7.9c1.5-3.7,5.1-6,9-6c1.3,0,2.5,0.2,3.7,0.7l21.9,9c1,0.4,1.6,1.3,1.6,2.4v12.1
				C378.8,375.7,377.7,376.9,376.3,376.9z M341.7,371.8h32.1V364l-20.3-8.4c-0.6-0.2-1.2-0.4-1.8-0.4c-1.9,0-3.6,1.1-4.3,2.9
				c-1,2.4,0.2,5.1,2.5,6.1c1,0.4,1.6,1.4,1.6,2.4c0,0.3-0.1,0.7-0.2,1c-0.5,1.3-2,1.9-3.3,1.4c-0.6-0.2-1.2-0.4-1.8-0.4
				c-1.9,0-3.6,1.1-4.3,2.9C341.7,371.6,341.7,371.7,341.7,371.8z"/>
		</g>
		<g>
			<path fill="#FFFFFF" d="M273.1,179.6H100.3c-1.4,0-2.5-1.1-2.5-2.5v-26.5c0-1.4,1.1-2.5,2.5-2.5h172.9c1.4,0,2.5,1.1,2.5,2.5
				v26.5C275.7,178.5,274.5,179.6,273.1,179.6z"/>
			<path fill="#F1553C" d="M273.1,182.2H100.3c-2.8,0-5.1-2.3-5.1-5.1v-26.5c0-2.8,2.3-5.1,5.1-5.1h172.9c2.8,0,5.1,2.3,5.1,5.1
				v26.5C278.2,179.9,275.9,182.2,273.1,182.2z M273.1,150.6H100.3v26.5h172.9L273.1,150.6z"/>
		</g>
		<g>
			<path fill="#F1553C" d="M111.5,174.2c-1.4,0-2.5-1.1-2.5-2.5v-17.2c0-1.4,1.1-2.5,2.5-2.5s2.5,1.1,2.5,2.5v17.2
				C114.1,173.1,112.9,174.2,111.5,174.2z"/>
		</g>
		<g>
			<path fill="#F1553C" d="M125.2,174.2c-1.4,0-2.5-1.1-2.5-2.5v-17.2c0-1.4,1.1-2.5,2.5-2.5s2.5,1.1,2.5,2.5v17.2
				C127.7,173.1,126.6,174.2,125.2,174.2z"/>
		</g>
		<g>
			<path fill="#F1553C" d="M138.9,174.2c-1.4,0-2.5-1.1-2.5-2.5v-17.2c0-1.4,1.1-2.5,2.5-2.5s2.5,1.1,2.5,2.5v17.2
				C141.4,173.1,140.3,174.2,138.9,174.2z"/>
		</g>
		<g>
			<path fill="#F1553C" d="M152.5,174.2c-1.4,0-2.5-1.1-2.5-2.5v-17.2c0-1.4,1.1-2.5,2.5-2.5s2.5,1.1,2.5,2.5v17.2
				C155.1,173.1,153.9,174.2,152.5,174.2z"/>
		</g>
		<g>
			<path fill="#F1553C" d="M166.2,174.2c-1.4,0-2.5-1.1-2.5-2.5v-17.2c0-1.4,1.1-2.5,2.5-2.5s2.5,1.1,2.5,2.5v17.2
				C168.7,173.1,167.6,174.2,166.2,174.2z"/>
		</g>
		<g>
			<path fill="#F1553C" d="M179.9,174.2c-1.4,0-2.5-1.1-2.5-2.5v-17.2c0-1.4,1.1-2.5,2.5-2.5s2.5,1.1,2.5,2.5v17.2
				C182.4,173.1,181.3,174.2,179.9,174.2z"/>
		</g>
		<g>
			<path fill="#F1553C" d="M193.5,174.2c-1.4,0-2.5-1.1-2.5-2.5v-17.2c0-1.4,1.1-2.5,2.5-2.5s2.5,1.1,2.5,2.5v17.2
				C196.1,173.1,194.9,174.2,193.5,174.2z"/>
		</g>
		<g>
			<path fill="#F1553C" d="M207.2,174.2c-1.4,0-2.5-1.1-2.5-2.5v-17.2c0-1.4,1.1-2.5,2.5-2.5s2.5,1.1,2.5,2.5v17.2
				C209.7,173.1,208.6,174.2,207.2,174.2z"/>
		</g>
		<g>
			<path fill="#F1553C" d="M220.9,174.2c-1.4,0-2.5-1.1-2.5-2.5v-17.2c0-1.4,1.1-2.5,2.5-2.5s2.5,1.1,2.5,2.5v17.2
				C223.4,173.1,222.3,174.2,220.9,174.2z"/>
		</g>
		<g>
			<path fill="#F1553C" d="M234.5,174.2c-1.4,0-2.5-1.1-2.5-2.5v-17.2c0-1.4,1.1-2.5,2.5-2.5s2.5,1.1,2.5,2.5v17.2
				C237.1,173.1,235.9,174.2,234.5,174.2z"/>
		</g>
		<g>
			<path fill="#F1553C" d="M248.2,174.2c-1.4,0-2.5-1.1-2.5-2.5v-17.2c0-1.4,1.1-2.5,2.5-2.5s2.5,1.1,2.5,2.5v17.2
				C250.7,173.1,249.6,174.2,248.2,174.2z"/>
		</g>
		<g>
			<path fill="#F1553C" d="M261.9,174.2c-1.4,0-2.5-1.1-2.5-2.5v-17.2c0-1.4,1.1-2.5,2.5-2.5s2.5,1.1,2.5,2.5v17.2
				C264.4,173.1,263.3,174.2,261.9,174.2z"/>
		</g>
		<g>
			<path fill="#F1553C" d="M119.3,142.9c-1.4,0-2.5-1.1-2.5-2.5v-13.9c0-1.4,1.1-2.5,2.5-2.5s2.5,1.1,2.5,2.5v13.9
				C121.9,141.8,120.7,142.9,119.3,142.9z"/>
		</g>
		<g>
			<path fill="#F1553C" d="M135.5,142.9c-1.4,0-2.5-1.1-2.5-2.5v-26.6c0-1.4,1.1-2.5,2.5-2.5s2.5,1.1,2.5,2.5v26.6
				C138,141.8,136.9,142.9,135.5,142.9z"/>
		</g>
		<g>
			<path fill="#F1553C" d="M151.7,142.9c-1.4,0-2.5-1.1-2.5-2.5v-39.3c0-1.4,1.1-2.5,2.5-2.5s2.5,1.1,2.5,2.5v39.3
				C154.2,141.8,153.1,142.9,151.7,142.9z"/>
		</g>
		<g>
			<path fill="#F1553C" d="M167.8,142.9c-1.4,0-2.5-1.1-2.5-2.5v-52c0-1.4,1.1-2.5,2.5-2.5s2.5,1.1,2.5,2.5v52
				C170.4,141.8,169.2,142.9,167.8,142.9z"/>
		</g>
		<g>
			<path fill="#F1553C" d="M184,142.9c-1.4,0-2.5-1.1-2.5-2.5V75.7c0-1.4,1.1-2.5,2.5-2.5s2.5,1.1,2.5,2.5v64.7
				C186.5,141.8,185.4,142.9,184,142.9z"/>
		</g>
		<g>
			<path fill="#F1553C" d="M248.8,142.9c-1.4,0-2.5-1.1-2.5-2.5v-13.9c0-1.4,1.1-2.5,2.5-2.5s2.5,1.1,2.5,2.5v13.9
				C251.4,141.8,250.2,142.9,248.8,142.9z"/>
		</g>
		<g>
			<path fill="#F1553C" d="M232.7,142.9c-1.4,0-2.5-1.1-2.5-2.5v-26.6c0-1.4,1.1-2.5,2.5-2.5s2.5,1.1,2.5,2.5v26.6
				C235.2,141.8,234.1,142.9,232.7,142.9z"/>
		</g>
		<g>
			<path fill="#F1553C" d="M216.5,142.9c-1.4,0-2.5-1.1-2.5-2.5v-39.3c0-1.4,1.1-2.5,2.5-2.5s2.5,1.1,2.5,2.5v39.3
				C219,141.8,217.9,142.9,216.5,142.9z"/>
		</g>
		<g>
			<path fill="#F1553C" d="M200.3,142.9c-1.4,0-2.5-1.1-2.5-2.5v-52c0-1.4,1.1-2.5,2.5-2.5s2.5,1.1,2.5,2.5v52
				C202.9,141.8,201.7,142.9,200.3,142.9z"/>
		</g>
		<g>
			<path fill="#F1553C" d="M186.2,323.2c-52,0-94.3-53.2-94.3-118.7c0-1.4,1.1-2.5,2.5-2.5s2.5,1.1,2.5,2.5
				c0,62.6,40,113.6,89.2,113.6s89.3-50.9,89.3-113.5c0-1.4,1.1-2.5,2.5-2.5s2.5,1.1,2.5,2.5C280.5,270,238.2,323.2,186.2,323.2z"/>
		</g>
		<g>
			<path fill="#FFFFFF" d="M97,208.5h-3.2c-2.1,0-3.8-1.7-3.8-3.8v-9.9c0-2.1,1.7-3.8,3.8-3.8H97c2.1,0,3.8,1.7,3.8,3.8v9.9
				C100.8,206.8,99.1,208.5,97,208.5z"/>
			<path fill="#F1553C" d="M97,211.1h-3.2c-3.5,0-6.4-2.9-6.4-6.4v-9.9c0-3.5,2.9-6.4,6.4-6.4H97c3.5,0,6.4,2.9,6.4,6.4v9.9
				C103.3,208.2,100.5,211.1,97,211.1z M93.8,193.5c-0.7,0-1.3,0.6-1.3,1.3v9.9c0,0.7,0.6,1.3,1.3,1.3H97c0.7,0,1.3-0.6,1.3-1.3
				v-9.9c0-0.7-0.6-1.3-1.3-1.3H93.8z"/>
		</g>
		<g>
			<path fill="#FFFFFF" d="M278.9,208.5h-3.2c-2.1,0-3.8-1.7-3.8-3.8v-9.9c0-2.1,1.7-3.8,3.8-3.8h3.2c2.1,0,3.8,1.7,3.8,3.8v9.9
				C282.7,206.8,281,208.5,278.9,208.5z"/>
			<path fill="#F1553C" d="M278.9,211.1h-3.2c-3.5,0-6.4-2.9-6.4-6.4v-9.9c0-3.5,2.9-6.4,6.4-6.4h3.2c3.5,0,6.4,2.9,6.4,6.4v9.9
				C285.2,208.2,282.4,211.1,278.9,211.1z M275.7,193.5c-0.7,0-1.3,0.6-1.3,1.3v9.9c0,0.7,0.6,1.3,1.3,1.3h3.2
				c0.7,0,1.3-0.6,1.3-1.3v-9.9c0-0.7-0.6-1.3-1.3-1.3H275.7z"/>
		</g>
		<g>
			<path fill="#F1553C" d="M331.6,367.3H198.1c-7.5,0-13.6-5.7-14.4-13c0-0.2-0.1-0.4-0.1-0.6v-33c0-1.4,1.1-2.5,2.5-2.5
				s2.5,1.1,2.5,2.5v32.2c0,5.2,4.2,9.4,9.4,9.4h133.5c1.4,0,2.5,1.1,2.5,2.5S333,367.3,331.6,367.3z"/>
		</g>
		<g>
			<path fill="#F1553C" d="M225.6,199.8c-0.3,0-0.5,0-0.8-0.1l-15.2-4.9c-1.3-0.4-2.1-1.9-1.6-3.2s1.9-2.1,3.2-1.6l15.2,4.9
				c1.3,0.4,2.1,1.9,1.6,3.2C227.7,199.1,226.7,199.8,225.6,199.8z"/>
		</g>
		<g>
			<g>
				<path fill="#F1553C" d="M59.7,193.6c-5.9,0-11.4-2.3-15.6-6.5c-8.6-8.6-8.6-22.6,0-31.2c4.2-4.2,9.7-6.5,15.6-6.5
					c5.9,0,11.4,2.3,15.6,6.5s6.5,9.7,6.5,15.6s-2.3,11.4-6.5,15.6C71.1,191.3,65.6,193.6,59.7,193.6z M59.7,154.6
					c-4.5,0-8.8,1.8-12,5c-6.6,6.6-6.6,17.4,0,24c3.2,3.2,7.5,5,12,5s8.8-1.8,12-5s5-7.5,5-12s-1.8-8.8-5-12S64.2,154.6,59.7,154.6z
					"/>
			</g>
			<g>
				<path fill="#F1553C" d="M46.3,187.5c-0.7,0-1.3-0.2-1.8-0.7c-1-1-1-2.6,0-3.6L71.7,156c1-1,2.6-1,3.6,0s1,2.6,0,3.6l-27.2,27.2
					C47.6,187.3,47,187.5,46.3,187.5z"/>
			</g>
		</g>
		<g>
			<g>
				<path fill="#F1553C" d="M313.4,193.6c-5.9,0-11.4-2.3-15.6-6.5c-8.6-8.6-8.6-22.6,0-31.2c4.2-4.2,9.7-6.5,15.6-6.5
					s11.4,2.3,15.6,6.5c8.6,8.6,8.6,22.6,0,31.2C324.8,191.3,319.3,193.6,313.4,193.6z M313.4,154.6c-4.5,0-8.8,1.8-12,5
					c-6.6,6.6-6.6,17.4,0,24c3.2,3.2,7.5,5,12,5s8.8-1.8,12-5c6.6-6.6,6.6-17.4,0-24C322.2,156.4,317.9,154.6,313.4,154.6z"/>
			</g>
			<g>
				<path fill="#F1553C" d="M300,187.5c-0.7,0-1.3-0.2-1.8-0.7c-1-1-1-2.6,0-3.6l27.2-27.2c1-1,2.6-1,3.6,0s1,2.6,0,3.6l-27.2,27.2
					C301.3,187.3,300.7,187.5,300,187.5z"/>
			</g>
		</g>
	</g>
	<g>
		<rect x="2.5" y="2.5" fill="none" width="373.7" height="371.8"/>
	</g>
	<g>
		<path fill="#F1553C" d="M376.3,376.9H2.5c-1.4,0-2.5-1.1-2.5-2.5V2.5C0,1.1,1.1,0,2.5,0h373.7c1.4,0,2.5,1.1,2.5,2.5v371.8
			C378.8,375.7,377.7,376.9,376.3,376.9z M5.1,371.8h368.6V5H5.1V371.8z"/>
	</g>
</g>
</svg>
