<?xml version="1.0" encoding="utf-8"?>
<!-- Generator: Adobe Illustrator 18.1.1, SVG Export Plug-In . SVG Version: 6.00 Build 0)  -->
<svg version="1.1" id="Layer_1" xmlns="http://www.w3.org/2000/svg" xmlns:xlink="http://www.w3.org/1999/xlink" x="0px" y="0px"
	 viewBox="0 0 378.8 376.9" enable-background="new 0 0 378.8 376.9" xml:space="preserve">
<g>
	<g>
		<path fill="#72AAD0" d="M376.3,376.9H2.5c-1.4,0-2.5-1.1-2.5-2.5V2.5C0,1.1,1.1,0,2.5,0h373.7c1.4,0,2.5,1.1,2.5,2.5v371.8
			C378.8,375.8,377.7,376.9,376.3,376.9z M5.1,371.8h368.6V5.1H5.1V371.8z"/>
	</g>
	<g>
		<path fill="#72AAD0" d="M140.9,150.7v-22.7h8.2c6.8,0,11.4,4.4,11.4,11.4s-4.6,11.3-11.4,11.3H140.9z M148.9,146
			c3.5,0,6.3-2,6.3-6.6s-2.8-6.6-6.3-6.6H146V146H148.9z"/>
		<path fill="#72AAD0" d="M178.4,146.2c-0.8,2.8-3.3,5.1-7.3,5.1c-4.4,0-8.3-3.1-8.3-8.5c0-5.1,3.8-8.4,7.9-8.4c4.9,0,8,3,8,8.2
			c0,0.7-0.1,1.4-0.1,1.5h-11.1c0.1,1.8,1.7,3.1,3.6,3.1c1.8,0,2.8-0.8,3.2-2.1L178.4,146.2z M174,140.9c-0.1-1.2-0.9-2.7-3.2-2.7
			c-2,0-3.1,1.5-3.2,2.7H174z"/>
		<path fill="#72AAD0" d="M185.3,142.8l-5.6-8h5.7l2.8,4.4l2.8-4.4h5.4l-5.5,7.8c1.8,2.6,3.9,5.6,5.7,8.1h-5.7l-2.9-4.5
			c-0.9,1.3-2,3.2-2.9,4.5h-5.3L185.3,142.8z"/>
		<path fill="#72AAD0" d="M205.4,134.8h3.1v4.3h-3.1v6c0,1.3,0.7,1.7,1.8,1.7c0.5,0,1-0.1,1.3-0.2v4c-0.2,0.1-1,0.4-2.5,0.4
			c-3.3,0-5.3-2-5.3-5.1v-6.8h-2.8v-4.3h0.8c1.7,0,2.5-1.1,2.5-2.6v-2h4.4V134.8z"/>
		<path fill="#72AAD0" d="M226.2,146.2c-0.8,2.8-3.3,5.1-7.3,5.1c-4.4,0-8.3-3.1-8.3-8.5c0-5.1,3.8-8.4,7.9-8.4c4.9,0,8,3,8,8.2
			c0,0.7-0.1,1.4-0.1,1.5h-11.1c0.1,1.8,1.7,3.1,3.6,3.1c1.8,0,2.8-0.8,3.2-2.1L226.2,146.2z M221.8,140.9c-0.1-1.2-0.9-2.7-3.2-2.7
			c-2,0-3.1,1.5-3.2,2.7H221.8z"/>
		<path fill="#72AAD0" d="M239.7,139.6c-0.5-0.1-1.1-0.2-1.5-0.2c-2,0-3.7,1.2-3.7,4.3v6.9h-4.9v-15.9h4.7v2.1
			c0.8-1.8,2.8-2.3,4.1-2.3c0.5,0,1,0.1,1.3,0.2V139.6z"/>
		<path fill="#72AAD0" d="M114.6,169.9v-7.7h1.4v1c0.5-0.8,1.4-1.2,2.3-1.2c1,0,1.9,0.5,2.3,1.5c0.6-1.1,1.6-1.5,2.6-1.5
			c1.3,0,2.7,0.9,2.7,2.9v5h-1.5v-4.8c0-1-0.5-1.8-1.6-1.8c-1.1,0-1.8,0.8-1.8,1.9v4.7h-1.5v-4.8c0-1-0.5-1.8-1.6-1.8
			c-1.1,0-1.8,0.8-1.8,2v4.6H114.6z"/>
		<path fill="#72AAD0" d="M130.2,165.5l2.1-0.3c0.5-0.1,0.6-0.3,0.6-0.6c0-0.8-0.5-1.4-1.7-1.4c-1.1,0-1.6,0.7-1.7,1.6l-1.4-0.3
			c0.2-1.5,1.5-2.5,3.2-2.5c2.3,0,3.2,1.3,3.2,2.8v3.9c0,0.7,0.1,1.1,0.1,1.3H133c0-0.2-0.1-0.5-0.1-1c-0.3,0.5-1.1,1.3-2.5,1.3
			c-1.6,0-2.6-1.1-2.6-2.3C127.8,166.5,128.8,165.7,130.2,165.5z M132.8,166.6v-0.4l-2.4,0.4c-0.6,0.1-1.1,0.5-1.1,1.2
			c0,0.6,0.5,1.1,1.2,1.1C131.8,168.9,132.8,168.3,132.8,166.6z"/>
		<path fill="#72AAD0" d="M140.3,165.5l3.3,4.4h-1.9l-2.5-3.4l-1.1,1.1v2.3h-1.5v-11.6h1.5v7.3l3.3-3.4h2.1L140.3,165.5z"/>
		<path fill="#72AAD0" d="M151.4,167.7c-0.4,1.4-1.7,2.4-3.5,2.4c-2.1,0-3.9-1.5-3.9-4.1c0-2.4,1.7-4.1,3.7-4.1c2.4,0,3.7,1.6,3.7,4
			c0,0.2,0,0.4,0,0.5h-5.8c0,1.4,1,2.3,2.3,2.3c1.2,0,1.9-0.7,2.2-1.6L151.4,167.7z M149.9,165.3c0-1.1-0.8-2-2.1-2
			c-1.3,0-2,1-2.1,2H149.9z"/>
		<path fill="#72AAD0" d="M154,167.5c0.1,0.8,0.7,1.4,1.8,1.4c0.8,0,1.3-0.5,1.3-1c0-0.5-0.4-0.8-1-1l-1.3-0.3
			c-1.2-0.3-1.9-1.1-1.9-2.2c0-1.3,1.2-2.4,2.7-2.4c2.1,0,2.8,1.4,2.9,2.1l-1.3,0.5c-0.1-0.4-0.4-1.3-1.6-1.3c-0.8,0-1.3,0.5-1.3,1
			c0,0.5,0.3,0.8,0.9,0.9l1.2,0.3c1.4,0.3,2.1,1.2,2.1,2.3c0,1.1-0.9,2.4-2.8,2.4c-2.1,0-3-1.4-3.1-2.2L154,167.5z"/>
		<path fill="#72AAD0" d="M166.6,162.2h1.7v1.4h-1.7v4c0,0.7,0.3,1.1,1.1,1.1c0.2,0,0.5,0,0.6-0.1v1.3c-0.1,0-0.5,0.1-1,0.1
			c-1.3,0-2.1-0.8-2.1-2.2v-4.2h-1.5v-1.4h0.4c0.8,0,1.2-0.5,1.2-1.2v-1.2h1.4V162.2z"/>
		<path fill="#72AAD0" d="M171.8,169.9h-1.5v-11.6h1.5v4.8c0.6-0.8,1.5-1.1,2.3-1.1c1.8,0,2.8,1.3,2.8,3v4.9h-1.5v-4.6
			c0-1.1-0.4-1.9-1.8-1.9c-1.2,0-1.8,0.9-1.8,2V169.9z"/>
		<path fill="#72AAD0" d="M180,158.2c0.6,0,1.1,0.5,1.1,1.1c0,0.6-0.5,1.1-1.1,1.1c-0.6,0-1.1-0.5-1.1-1.1
			C178.9,158.7,179.4,158.2,180,158.2z M179.3,169.9v-7.7h1.5v7.7H179.3z"/>
		<path fill="#72AAD0" d="M184.8,169.9h-1.5v-7.7h1.5v1.1c0.6-1,1.5-1.3,2.4-1.3c1.8,0,2.8,1.3,2.8,3v4.9h-1.5v-4.6
			c0-1.1-0.4-1.9-1.8-1.9c-1.2,0-1.8,0.9-1.8,2.1V169.9z"/>
		<path fill="#72AAD0" d="M193.2,170c0.1,1.1,0.9,1.9,2.1,1.9c1.6,0,2.4-0.8,2.4-2.5v-1.1c-0.4,0.7-1.2,1.3-2.4,1.3
			c-2,0-3.5-1.6-3.5-3.7c0-2.1,1.4-3.7,3.5-3.7c1.2,0,2,0.4,2.4,1.2v-1.1h1.5v7.1c0,2-1,3.9-3.9,3.9c-1.9,0-3.4-1.2-3.6-2.9
			L193.2,170z M197.7,165.8c0-1.5-0.9-2.5-2.2-2.5c-1.3,0-2.2,1-2.2,2.5c0,1.5,0.9,2.5,2.2,2.5C196.8,168.3,197.7,167.3,197.7,165.8
			z"/>
		<path fill="#72AAD0" d="M202.2,167.5c0.1,0.8,0.7,1.4,1.8,1.4c0.8,0,1.3-0.5,1.3-1c0-0.5-0.4-0.8-1-1l-1.3-0.3
			c-1.2-0.3-1.9-1.1-1.9-2.2c0-1.3,1.2-2.4,2.7-2.4c2.1,0,2.8,1.4,2.9,2.1l-1.3,0.5c-0.1-0.4-0.4-1.3-1.6-1.3c-0.8,0-1.3,0.5-1.3,1
			c0,0.5,0.3,0.8,0.9,0.9l1.2,0.3c1.4,0.3,2.1,1.2,2.1,2.3c0,1.1-0.9,2.4-2.8,2.4c-2.1,0-3-1.4-3.1-2.2L202.2,167.5z"/>
		<path fill="#72AAD0" d="M214.3,169.9h-1.5v-11.6h1.5v4.8c0.6-0.8,1.5-1.1,2.3-1.1c1.8,0,2.8,1.3,2.8,3v4.9h-1.5v-4.6
			c0-1.1-0.4-1.9-1.8-1.9c-1.2,0-1.8,0.9-1.8,2V169.9z"/>
		<path fill="#72AAD0" d="M223.6,165.5l2.1-0.3c0.5-0.1,0.6-0.3,0.6-0.6c0-0.8-0.5-1.4-1.7-1.4c-1.1,0-1.6,0.7-1.7,1.6l-1.4-0.3
			c0.2-1.5,1.5-2.5,3.2-2.5c2.3,0,3.2,1.3,3.2,2.8v3.9c0,0.7,0.1,1.1,0.1,1.3h-1.5c0-0.2-0.1-0.5-0.1-1c-0.3,0.5-1.1,1.3-2.5,1.3
			c-1.6,0-2.6-1.1-2.6-2.3C221.3,166.5,222.3,165.7,223.6,165.5z M226.3,166.6v-0.4l-2.4,0.4c-0.6,0.1-1.1,0.5-1.1,1.2
			c0,0.6,0.5,1.1,1.2,1.1C225.3,168.9,226.3,168.3,226.3,166.6z"/>
		<path fill="#72AAD0" d="M230.1,173v-10.7h1.5v1.2c0.4-0.8,1.3-1.4,2.6-1.4c2.3,0,3.5,1.8,3.5,4c0,2.3-1.3,4.1-3.6,4.1
			c-1.2,0-2.1-0.6-2.5-1.2v4.1H230.1z M233.9,163.4c-1.4,0-2.3,1.2-2.3,2.7c0,1.6,0.9,2.7,2.3,2.7c1.4,0,2.3-1.1,2.3-2.7
			C236.2,164.5,235.3,163.4,233.9,163.4z"/>
		<path fill="#72AAD0" d="M239.6,173v-10.7h1.5v1.2c0.4-0.8,1.3-1.4,2.6-1.4c2.3,0,3.5,1.8,3.5,4c0,2.3-1.3,4.1-3.6,4.1
			c-1.2,0-2.1-0.6-2.5-1.2v4.1H239.6z M243.4,163.4c-1.4,0-2.3,1.2-2.3,2.7c0,1.6,0.9,2.7,2.3,2.7c1.4,0,2.3-1.1,2.3-2.7
			C245.7,164.5,244.8,163.4,243.4,163.4z"/>
		<path fill="#72AAD0" d="M255.8,167.7c-0.4,1.4-1.7,2.4-3.5,2.4c-2.1,0-3.9-1.5-3.9-4.1c0-2.4,1.7-4.1,3.7-4.1c2.4,0,3.7,1.6,3.7,4
			c0,0.2,0,0.4,0,0.5H250c0,1.4,1,2.3,2.3,2.3c1.2,0,1.9-0.7,2.2-1.6L255.8,167.7z M254.3,165.3c0-1.1-0.8-2-2.1-2c-1.3,0-2,1-2.1,2
			H254.3z"/>
		<path fill="#72AAD0" d="M259.3,169.9h-1.5v-7.7h1.5v1.1c0.6-1,1.5-1.3,2.4-1.3c1.8,0,2.8,1.3,2.8,3v4.9h-1.5v-4.6
			c0-1.1-0.4-1.9-1.8-1.9c-1.2,0-1.8,0.9-1.8,2.1V169.9z"/>
	</g>
	<g>
		<path fill="#72AAD0" d="M335.9,301.8H42.9c-12.4,0-22.5-10.1-22.5-22.5V90.1c0-12.4,10.1-22.5,22.5-22.5h293.1
			c12.4,0,22.5,10.1,22.5,22.5v189.1C358.5,291.7,348.4,301.8,335.9,301.8z M42.9,72.7c-9.6,0-17.5,7.8-17.5,17.5v189.1
			c0,9.6,7.8,17.5,17.5,17.5h293.1c9.6,0,17.5-7.8,17.5-17.5V90.1c0-9.6-7.8-17.5-17.5-17.5H42.9z"/>
	</g>
	<g>
		<path fill="#72AAD0" d="M334.9,280.8H43.9c-1.4,0-2.5-1.1-2.5-2.5V91.1c0-1.4,1.1-2.5,2.5-2.5h291.1c1.4,0,2.5,1.1,2.5,2.5v187.1
			C337.5,279.7,336.4,280.8,334.9,280.8z M46.4,275.7h286V93.7h-286V275.7z"/>
	</g>
	<g>
		<rect x="133.9" y="316.8" fill="#FFFFFF" width="111" height="38.4"/>
		<path fill="#72AAD0" d="M244.9,357.7h-111c-1.4,0-2.5-1.1-2.5-2.5v-38.4c0-1.4,1.1-2.5,2.5-2.5h111c1.4,0,2.5,1.1,2.5,2.5v38.4
			C247.4,356.6,246.3,357.7,244.9,357.7z M136.5,352.6h105.9v-33.3H136.5V352.6z"/>
	</g>
	<g>
		<rect x="159.9" y="299.3" fill="#FFFFFF" width="59.1" height="37.8"/>
		<path fill="#72AAD0" d="M218.9,339.6h-59.1c-1.4,0-2.5-1.1-2.5-2.5v-37.8c0-1.4,1.1-2.5,2.5-2.5h59.1c1.4,0,2.5,1.1,2.5,2.5v37.8
			C221.5,338.5,220.4,339.6,218.9,339.6z M162.4,334.5h54v-32.7h-54V334.5z"/>
	</g>
	<g>
		<g>
			<path fill="#72AAD0" d="M238.5,235.6h-98.1c-1.4,0-2.5-1.1-2.5-2.5v-31.2c0-1.4,1.1-2.5,2.5-2.5h98.1c1.4,0,2.5,1.1,2.5,2.5v31.2
				C241,234.5,239.9,235.6,238.5,235.6z M142.9,230.5h93.1v-26.1h-93.1V230.5z"/>
		</g>
		<g>
			<path fill="#72AAD0" d="M159.2,213.4c-0.1-0.7-0.6-1.8-2.4-1.8c-1.2,0-1.9,0.7-1.9,1.5c0,0.7,0.4,1.2,1.4,1.4l1.9,0.4
				c2.7,0.5,4.1,2.2,4.1,4.3c0,2.2-1.9,4.5-5.2,4.5c-3.9,0-5.6-2.5-5.8-4.5l2.9-0.7c0.1,1.3,1,2.4,2.9,2.4c1.2,0,2-0.6,2-1.5
				c0-0.7-0.6-1.2-1.5-1.4l-1.9-0.4c-2.4-0.5-3.9-2.1-3.9-4.2c0-2.7,2.4-4.6,5.1-4.6c3.5,0,4.9,2.1,5.2,3.8L159.2,213.4z"/>
			<path fill="#72AAD0" d="M165.7,208.5c1,0,1.8,0.8,1.8,1.8c0,1-0.8,1.8-1.8,1.8c-1,0-1.8-0.8-1.8-1.8
				C164,209.3,164.8,208.5,165.7,208.5z M164.2,223.3v-9.9h3v9.9H164.2z"/>
			<path fill="#72AAD0" d="M171.9,223.1c0.2,1,1,1.7,2.1,1.7c1.5,0,2.5-0.7,2.5-2.5v-0.5c-0.4,0.5-1.2,1.1-2.7,1.1
				c-2.6,0-4.6-2.1-4.6-4.8c0-2.6,1.9-4.9,4.6-4.9c1.6,0,2.5,0.7,2.8,1.2v-1.1h2.9v8.7c0,2.9-1.6,5.3-5.3,5.3c-2.9,0-4.7-1.8-5-3.5
				L171.9,223.1z M176.5,218c0-1.4-1-2.2-2.1-2.2s-2.1,0.8-2.1,2.2s0.9,2.2,2.1,2.2C175.7,220.2,176.5,219.4,176.5,218z"/>
			<path fill="#72AAD0" d="M185.1,223.3h-3v-9.9h2.9v1.1c0.5-0.9,1.8-1.4,2.8-1.4c2.5,0,3.6,1.8,3.6,4v6.2h-3v-5.7
				c0-1-0.5-1.7-1.6-1.7c-1,0-1.6,0.7-1.6,1.7V223.3z"/>
			<path fill="#72AAD0" d="M205.2,222.3c-0.5,0.9-1.7,1.2-2.7,1.2c-2.4,0-3.8-1.8-3.8-3.9v-6.3h3v5.6c0,1,0.5,1.7,1.6,1.7
				c1,0,1.7-0.7,1.7-1.7v-5.7h3v8.2c0,0.9,0.1,1.6,0.1,1.8h-2.9C205.3,223.1,205.2,222.6,205.2,222.3z"/>
			<path fill="#72AAD0" d="M210.8,227.1v-13.7h2.9v1c0.4-0.6,1.5-1.3,2.9-1.3c2.9,0,4.6,2.2,4.6,5.2c0,3-2,5.2-4.7,5.2
				c-1.3,0-2.2-0.4-2.7-1v4.6H210.8z M216.1,215.9c-1.2,0-2.2,0.8-2.2,2.5c0,1.6,1.1,2.5,2.2,2.5c1.2,0,2.3-0.8,2.3-2.5
				C218.3,216.7,217.3,215.9,216.1,215.9z"/>
			<path fill="#72AAD0" d="M224.8,219.4c1.1,0,2.1,0.9,2.1,2c0,1.1-0.9,2.1-2.1,2.1s-2-1-2-2.1C222.7,220.3,223.7,219.4,224.8,219.4
				z"/>
		</g>
	</g>
	<g>
		<polygon fill="#FFFFFF" points="252.3,238.5 230,224.8 234,250.7 239.4,247.1 244.7,255.9 252.3,250.9 246.9,242.1 		"/>
		<path fill="#72AAD0" d="M244.7,258.5c-0.2,0-0.4,0-0.6-0.1c-0.7-0.2-1.3-0.6-1.6-1.2l-4-6.6l-3.2,2.1c-0.7,0.5-1.6,0.6-2.4,0.2
			s-1.4-1.1-1.5-1.9l-4-25.9c-0.1-1,0.3-2,1.1-2.5c0.8-0.5,1.9-0.6,2.7,0l22.3,13.7c0.7,0.5,1.2,1.3,1.2,2.1c0,0.9-0.4,1.7-1.1,2.2
			l-3.4,2.2l4.1,6.8c0.7,1.2,0.4,2.7-0.8,3.4l-7.5,5C245.7,258.3,245.2,258.5,244.7,258.5z M239.4,244.5c0.2,0,0.4,0,0.6,0.1
			c0.7,0.2,1.3,0.6,1.6,1.2l4,6.6l3.3-2.2l-4.1-6.8c-0.7-1.2-0.4-2.7,0.8-3.4l2.1-1.4l-14.2-8.8l2.5,16.5l2.1-1.4
			C238.4,244.7,238.9,244.5,239.4,244.5z"/>
	</g>
</g>
</svg>
