<?xml version="1.0" encoding="utf-8"?>
<!-- Generator: Adobe Illustrator 18.1.1, SVG Export Plug-In . SVG Version: 6.00 Build 0)  -->
<svg version="1.1" id="Layer_1" xmlns="http://www.w3.org/2000/svg" xmlns:xlink="http://www.w3.org/1999/xlink" x="0px" y="0px"
	 viewBox="0 0 378.8 376.9" enable-background="new 0 0 378.8 376.9" xml:space="preserve">
<g>
	<g>
		<rect x="2.5" y="2.5" fill="#FFFFFF" width="373.7" height="371.8"/>
	</g>
	<g>
		<g>
			<path fill="#FFFFFF" d="M303.9,374.4H91c13.7-38.6,42-68.2,76.7-79.1c9.5-3,19.4-4.6,29.7-4.6c9.7,0,19.2,1.4,28.2,4.1
				C261.1,305.3,290,335.2,303.9,374.4z"/>
			<path fill="#72AAD0" d="M303.9,376.9C303.9,376.9,303.9,376.9,303.9,376.9H91c-0.8,0-1.6-0.4-2.1-1.1c-0.5-0.7-0.6-1.5-0.3-2.3
				c14-39.5,43.3-69.7,78.4-80.7c19.3-6,40.1-6.2,59.4-0.5c35.7,10.6,65.5,40.8,79.8,80.9c0.2,0.3,0.3,0.7,0.3,1.1
				C306.4,375.8,305.3,376.9,303.9,376.9z M94.6,371.8h205.6c-14.2-37-42.1-64.7-75.3-74.6c-18.3-5.4-38.1-5.3-56.4,0.4
				C136,307.9,108.6,335.5,94.6,371.8z"/>
		</g>
		<g>
			<path fill="#FFFFFF" d="M167.7,271.2v42.4c0,8.4,13,15.3,28.9,15.3c16,0,28.9-6.8,28.9-15.3v-42.4H167.7z"/>
			<path fill="#72AAD0" d="M196.7,331.4c-17.7,0-31.5-7.8-31.5-17.8v-42.4c0-1.4,1.1-2.5,2.5-2.5h57.9c1.4,0,2.5,1.1,2.5,2.5v42.4
				C228.2,323.5,214.3,331.4,196.7,331.4z M170.3,273.7v39.8c0,6.1,10.6,12.7,26.4,12.7c15.8,0,26.4-6.6,26.4-12.7v-39.8H170.3z"/>
		</g>
		<g>
			<path fill="#FFFFFF" d="M101.7,142.4h15.9c7,0,12.7,5.7,12.7,12.7v57.2c0,7-5.7,12.7-12.7,12.7h-15.9c-7,0-12.7-5.7-12.7-12.7
				v-57.2C89,148,94.7,142.4,101.7,142.4z"/>
			<path fill="#72AAD0" d="M117.6,227.5h-15.9c-8.4,0-15.3-6.8-15.3-15.3v-57.2c0-8.4,6.8-15.3,15.3-15.3h15.9
				c8.4,0,15.3,6.8,15.3,15.3v57.2C132.9,220.7,126,227.5,117.6,227.5z M101.7,144.9c-5.6,0-10.2,4.6-10.2,10.2v57.2
				c0,5.6,4.6,10.2,10.2,10.2h15.9c5.6,0,10.2-4.6,10.2-10.2v-57.2c0-5.6-4.6-10.2-10.2-10.2H101.7z"/>
		</g>
		<g>
			<path fill="#FFFFFF" d="M275.8,142.4h15.9c7,0,12.7,5.7,12.7,12.7v57.2c0,7-5.7,12.7-12.7,12.7h-15.9c-7,0-12.7-5.7-12.7-12.7
				v-57.2C263.1,148,268.7,142.4,275.8,142.4z"/>
			<path fill="#72AAD0" d="M291.7,227.5h-15.9c-8.4,0-15.3-6.8-15.3-15.3v-57.2c0-8.4,6.8-15.3,15.3-15.3h15.9
				c8.4,0,15.3,6.8,15.3,15.3v57.2C307,220.7,300.1,227.5,291.7,227.5z M275.8,144.9c-5.6,0-10.2,4.6-10.2,10.2v57.2
				c0,5.6,4.6,10.2,10.2,10.2h15.9c5.6,0,10.2-4.6,10.2-10.2v-57.2c0-5.6-4.6-10.2-10.2-10.2H275.8z"/>
		</g>
		<g>
			<path fill="#72AAD0" d="M284,144.7c-1.4,0-2.5-1.1-2.5-2.5c0-44-38-79.9-84.8-79.9s-84.8,35.8-84.8,79.9c0,1.4-1.1,2.5-2.5,2.5
				s-2.5-1.1-2.5-2.5c0-46.8,40.3-84.9,89.9-84.9s89.9,38.1,89.9,84.9C286.6,143.5,285.4,144.7,284,144.7z"/>
		</g>
		<g>
			<g>
				<ellipse fill="#FFFFFF" cx="196.7" cy="185.1" rx="84.5" ry="99.9"/>
				<path fill="#72AAD0" d="M196.7,287.6c-48,0-87.1-45.9-87.1-102.4s39.1-102.4,87.1-102.4s87.1,45.9,87.1,102.4
					S244.7,287.6,196.7,287.6z M196.7,87.8c-45.2,0-82,43.7-82,97.3c0,53.7,36.8,97.3,82,97.3c45.2,0,82-43.7,82-97.3
					C278.7,131.5,241.9,87.8,196.7,87.8z"/>
			</g>
			<g>
				<defs>
					<ellipse id="SVGID_1_" cx="196.7" cy="185.1" rx="84.5" ry="99.9"/>
				</defs>
				<clipPath id="SVGID_2_">
					<use xlink:href="#SVGID_1_"  overflow="visible"/>
				</clipPath>
				<g clip-path="url(#SVGID_2_)">
					<path fill="#72AAD0" d="M256.3,163c-24.7,0-51.3-7.8-74.8-21.9c-56.5-34-82-95.7-56.8-137.6c13.8-23,40.6-36.2,73.4-36.2
						c24.7,0,51.3,7.8,74.8,21.9c56.5,34,82,95.7,56.8,137.6C315.9,149.8,289.1,163,256.3,163z M198.2-27.6
						c-31,0-56.2,12.3-69.1,33.8c-23.8,39.5,0.9,98.1,55.1,130.7c22.7,13.7,48.3,21.2,72.2,21.2c31,0,56.2-12.3,69.1-33.8
						c23.8-39.5-0.9-98.1-55.1-130.7C247.6-20.1,222-27.6,198.2-27.6z M250.7,144.6C250.7,144.6,250.7,144.6,250.7,144.6
						c-20.1,0-41.6-6.3-60.6-17.7c-22.1-13.3-39-32.1-47.8-53.1c-8.8-21.2-8.2-42,1.8-58.6c11.3-18.7,33-29.5,59.6-29.5
						c20.1,0,41.6,6.3,60.6,17.7c22.1,13.3,39,32.1,47.8,53.1c8.8,21.2,8.2,42-1.8,58.6C299.1,133.9,277.3,144.6,250.7,144.6z
						 M203.8-9.2c-24.8,0-45,9.8-55.3,27c-9.1,15.2-9.7,34.4-1.5,54.1c8.3,19.9,24.5,37.9,45.7,50.7c18.2,11,38.8,17,58,17
						c24.8,0,45-9.8,55.3-27c9.1-15.2,9.7-34.4,1.5-54.1c-8.3-19.9-24.5-37.9-45.7-50.7C243.5-3.2,222.9-9.2,203.8-9.2z
						 M245.1,126.2C245.1,126.2,245.1,126.2,245.1,126.2c-15.4,0-31.8-4.8-46.4-13.6C181.8,102.4,168.8,88,162.1,72
						c-6.8-16.3-6.3-32.3,1.4-45.1c8.7-14.4,25.4-22.7,45.9-22.7c15.4,0,31.8,4.8,46.4,13.6c35.1,21.1,50.9,59.6,35.2,85.8
						C282.3,117.9,265.5,126.2,245.1,126.2z M209.4,9.2c-18.6,0-33.8,7.4-41.5,20.2c-6.8,11.4-7.2,25.8-1.1,40.6
						c6.3,15,18.5,28.6,34.5,38.2c13.8,8.3,29.3,12.8,43.8,12.8c18.6,0,33.8-7.4,41.5-20.2c14.3-23.8-0.7-59.1-33.4-78.8
						C239.4,13.8,223.8,9.2,209.4,9.2z M239.4,107.7C239.4,107.7,239.4,107.7,239.4,107.7c-10.7,0-22.1-3.3-32.2-9.4
						c-24.4-14.7-35.4-41.5-24.4-59.8c6.1-10.1,17.8-15.9,32.1-15.9c10.7,0,22.1,3.3,32.2,9.4c24.4,14.7,35.4,41.5,24.4,59.8
						C265.5,101.9,253.8,107.7,239.4,107.7z M215,27.7c-12.5,0-22.6,4.9-27.7,13.5c-9.6,15.9,0.6,39.6,22.6,52.8
						c9.3,5.6,19.8,8.7,29.5,8.7c12.5,0,22.6-4.9,27.7-13.5c9.6-15.9-0.6-39.6-22.6-52.8C235.3,30.7,224.8,27.7,215,27.7z"/>
				</g>
			</g>
			<g>
				<defs>
					<ellipse id="SVGID_3_" cx="196.7" cy="185.1" rx="84.5" ry="99.9"/>
				</defs>
				<clipPath id="SVGID_4_">
					<use xlink:href="#SVGID_3_"  overflow="visible"/>
				</clipPath>
				<g clip-path="url(#SVGID_4_)">
					<path fill="#72AAD0" d="M60.4,196.3c-11.3,0-22.1-2.5-31.9-7.6c-43.4-22.5-54.1-88.4-23.7-147c0.6-1.2,2.2-1.7,3.4-1.1
						c1.2,0.6,1.7,2.2,1.1,3.4c-29,56.1-19.4,118.9,21.5,140.1c19.7,10.2,43.7,9.3,67.5-2.5c24.1-11.9,45.2-33.5,59.3-60.8
						c0.6-1.2,2.2-1.7,3.4-1.1c1.2,0.6,1.7,2.2,1.1,3.4c-14.6,28.2-36.5,50.6-61.6,63C87,192.9,73.4,196.3,60.4,196.3z M64.7,174.7
						c-9,0-17.8-2-25.8-6.2c-17.2-8.9-28.7-26.3-32.2-49c-3.5-22.4,1-47.3,12.9-70.2c0.6-1.2,2.2-1.7,3.4-1.1
						c1.2,0.6,1.7,2.2,1.1,3.4C12.7,73.6,8.3,97.4,11.7,118.7c3.3,21.1,13.8,37.1,29.6,45.3c32.8,17,78.4-5.8,101.7-50.8
						c0.8-1.5,1.5-3,2.2-4.5c0.6-1.3,2.1-1.8,3.4-1.2c1.3,0.6,1.8,2.1,1.2,3.4c-0.7,1.6-1.5,3.1-2.3,4.7
						C128.4,152.2,95.1,174.7,64.7,174.7z M69.3,153.2c-7.1,0-13.9-1.6-20-4.8c-13.3-6.9-22.1-20.3-24.8-37.7
						c-2.7-17.2,0.8-36.3,9.9-53.8l0,0c18.9-36.4,56.2-54.6,83.3-40.6c27.1,14,33.8,55.1,15,91.5c-9.1,17.5-22.6,31.4-38.2,39.1
						C86,151.1,77.4,153.2,69.3,153.2z M38.8,59.3c-8.6,16.6-11.9,34.5-9.4,50.6c2.5,15.8,10.4,27.9,22.2,34
						c11.8,6.1,26.2,5.6,40.5-1.5c14.6-7.2,27.4-20.3,36-36.9c17.6-33.9,11.8-71.9-12.8-84.6C90.7,8.2,56.4,25.4,38.8,59.3
						L38.8,59.3z M73.8,131.7c-5,0-9.7-1.1-14.1-3.4c-19-9.8-23.7-38.4-10.6-63.7l0,0c13.1-25.3,39.2-37.9,58.2-28.1
						c9.3,4.8,15.5,14.2,17.4,26.4c1.9,11.9-0.5,25.2-6.8,37.3s-15.7,21.8-26.5,27.1C85.4,130.3,79.5,131.7,73.8,131.7z M53.6,67
						c-11.8,22.8-8,48.3,8.4,56.9c7.8,4.1,17.4,3.7,27-1c9.9-4.9,18.5-13.7,24.3-24.9c5.8-11.2,8-23.3,6.3-34.2
						c-1.7-10.6-6.9-18.6-14.7-22.7C88.4,32.5,65.4,44.1,53.6,67L53.6,67z"/>
				</g>
			</g>
		</g>
		<g>
			<path fill="#72AAD0" d="M165.6,186.3c-6.6,0-11.9-4.9-11.9-11c0-1.4,1.1-2.5,2.5-2.5s2.5,1.1,2.5,2.5c0,3.2,3.1,5.9,6.8,5.9
				c3.8,0,6.8-2.6,6.8-5.9c0-1.4,1.1-2.5,2.5-2.5s2.5,1.1,2.5,2.5C177.5,181.4,172.1,186.3,165.6,186.3z"/>
		</g>
		<g>
			<path fill="#72AAD0" d="M197.4,216.9c-6,0-11-5.3-11-11.9c0-6.6,4.9-11.9,11-11.9c1.4,0,2.5,1.1,2.5,2.5s-1.1,2.5-2.5,2.5
				c-3.2,0-5.9,3.1-5.9,6.8c0,3.8,2.6,6.8,5.9,6.8c1.4,0,2.5,1.1,2.5,2.5S198.8,216.9,197.4,216.9z"/>
		</g>
		<g>
			<path fill="#72AAD0" d="M229.3,186.3c-6.6,0-11.9-4.9-11.9-11c0-1.4,1.1-2.5,2.5-2.5s2.5,1.1,2.5,2.5c0,3.2,3.1,5.9,6.8,5.9
				c3.8,0,6.8-2.6,6.8-5.9c0-1.4,1.1-2.5,2.5-2.5s2.5,1.1,2.5,2.5C241.2,181.4,235.9,186.3,229.3,186.3z"/>
		</g>
		<g>
			<path fill="#72AAD0" d="M145.3,180.7c-1.3,0-2.4-1-2.5-2.4l-0.3-4c-0.3-3.8,2.2-7.1,5.9-8l26.7-6.1c1.4-0.3,2.7,0.5,3,1.9
				c0.3,1.4-0.5,2.7-1.9,3l-26.7,6.1c-1.2,0.3-2.1,1.4-2,2.7l0.3,4c0.1,1.4-1,2.6-2.4,2.7C145.4,180.7,145.3,180.7,145.3,180.7z"/>
		</g>
		<g>
			<path fill="#72AAD0" d="M214.3,241h-40.1c-1.4,0-2.5-1.1-2.5-2.5s1.1-2.5,2.5-2.5h40.1c1.3,0,2.3-0.9,2.5-2.2l0.6-4
				c0.2-1.4,1.5-2.3,2.9-2.1c1.4,0.2,2.3,1.5,2.1,2.9l-0.6,4C221.2,238.3,218.1,241,214.3,241z"/>
		</g>
		<g>
			<path fill="#72AAD0" d="M246.9,180.5c-0.1,0-0.1,0-0.2,0c-1.4-0.1-2.5-1.3-2.4-2.7l0.2-4c0.1-1.3-0.8-2.4-2-2.6l-26.8-5.8
				c-1.4-0.3-2.2-1.6-1.9-3c0.3-1.4,1.7-2.2,3-1.9l26.8,5.8c3.7,0.8,6.2,4.1,6,7.9l-0.2,4C249.4,179.5,248.3,180.5,246.9,180.5z"/>
		</g>
		<g>
			<path fill="#72AAD0" d="M147.8,81.4c-2.5,0-5-1.2-6.4-3.5c-2.3-3.6-1.2-8.3,2.3-10.5c5.1-3.2,10.5-6,16.1-8.2
				c5.7-2.3,11.7-4,17.8-5.2c12.5-2.4,25.6-2.4,38.1,0c6.1,1.2,12.1,2.9,17.8,5.2c5.6,2.2,11,5,16.1,8.2c3.6,2.3,4.6,7,2.3,10.5
				c-2.3,3.6-7,4.6-10.5,2.3c-4.3-2.7-8.8-5.1-13.6-6.9c-4.8-1.9-9.9-3.4-15-4.4c-10.6-2-21.8-2-32.3,0c-5.1,1-10.2,2.5-15,4.4
				c-4.7,1.9-9.3,4.2-13.6,6.9C150.7,81.1,149.3,81.4,147.8,81.4z"/>
		</g>
		<g>
			<path fill="#72AAD0" d="M331.3,323.3c-1.4,0-2.5-1.1-2.5-2.5v-38c0-5.2-4.2-9.4-9.4-9.4c-5,0-9,3.9-9.3,8.7
				c0,0.2,0.1,0.4,0.1,0.5V308c0,0.3-0.1,0.7-0.2,1c-0.9,7.1-7,12.6-14.3,12.6c-7.5,0-13.6-5.7-14.4-13c0-0.2-0.1-0.4-0.1-0.6V225
				c0-1.4,1.1-2.5,2.5-2.5s2.5,1.1,2.5,2.5v82.2c0,5.2,4.2,9.4,9.4,9.4s9.4-4.2,9.4-9.4c0-0.2,0-0.4,0.1-0.6v-23.2
				c-0.1-0.2-0.1-0.4-0.1-0.6c0-8,6.5-14.4,14.4-14.4c7.9,0,14.4,6.4,14.4,14.3c0,0,0,0,0,0.1v38.1
				C333.9,322.2,332.8,323.3,331.3,323.3z"/>
		</g>
		<g>
			<rect x="308.5" y="320.8" fill="#FFFFFF" width="45.7" height="53.6"/>
			<path fill="#72AAD0" d="M354.2,376.9h-45.7c-1.4,0-2.5-1.1-2.5-2.5v-53.6c0-1.4,1.1-2.5,2.5-2.5h45.7c1.4,0,2.5,1.1,2.5,2.5v53.6
				C356.8,375.8,355.6,376.9,354.2,376.9z M311,371.8h40.6v-48.5H311V371.8z"/>
		</g>
		<g>
			<path fill="#FFFFFF" d="M376.3,357.2v17.2h-65.6c-0.5-1.6-0.5-3.4,0.2-5.1c1.5-3.7,5.7-5.5,9.4-3.9c-3.7-1.5-5.5-5.7-3.9-9.4
				c1.5-3.7,5.7-5.5,9.4-3.9c-3.7-1.5-5.5-5.7-3.9-9.4c1.5-3.7,5.7-5.5,9.4-3.9l23,9.5L376.3,357.2z"/>
			<path fill="#72AAD0" d="M376.3,376.9h-65.6c-1.1,0-2.1-0.7-2.4-1.7c-0.8-2.2-0.7-4.7,0.2-6.8c1.1-2.6,3.2-4.6,5.7-5.5
				c-0.1-0.1-0.1-0.3-0.2-0.4c-1-2.4-1-5.1,0-7.5c1.1-2.6,3.2-4.5,5.7-5.5c-0.1-0.1-0.1-0.3-0.2-0.4c-1-2.4-1-5.1,0-7.5
				c1.5-3.7,5.1-6.1,9-6.1c1.3,0,2.5,0.2,3.7,0.7l45.1,18.5c1,0.4,1.6,1.3,1.6,2.4v17.2C378.8,375.8,377.7,376.9,376.3,376.9z
				 M312.8,371.8h60.9v-12.9L330.2,341c-0.6-0.2-1.2-0.3-1.8-0.3c-1.9,0-3.6,1.1-4.3,2.9c-0.5,1.2-0.5,2.4,0,3.6
				c0.5,1.2,1.4,2.1,2.5,2.5c1,0.4,1.6,1.4,1.6,2.4c0,0.3-0.1,0.7-0.2,1c-0.5,1.3-2,1.9-3.3,1.4c-0.6-0.2-1.2-0.4-1.8-0.4
				c-1.9,0-3.6,1.1-4.3,2.9c-0.5,1.2-0.5,2.4,0,3.6c0.5,1.2,1.4,2.1,2.5,2.5c1,0.4,1.6,1.4,1.6,2.4c0,0.3-0.1,0.7-0.2,1
				c-0.5,1.3-2,1.9-3.3,1.4c-0.6-0.2-1.2-0.4-1.8-0.4c-1.9,0-3.6,1.1-4.3,2.9C313,370.8,312.8,371.3,312.8,371.8z"/>
		</g>
		<g>
			<path fill="#72AAD0" d="M203.8,248.6H191c-1.4,0-2.5-1.1-2.5-2.5s1.1-2.5,2.5-2.5h12.7c1.4,0,2.5,1.1,2.5,2.5
				S205.2,248.6,203.8,248.6z"/>
		</g>
		<g>
			<g>
				<circle fill="#FFFFFF" cx="287.6" cy="83" r="6.6"/>
				<path fill="#72AAD0" d="M287.6,92.2c-5,0-9.1-4.1-9.1-9.1c0-5,4.1-9.1,9.1-9.1c5,0,9.1,4.1,9.1,9.1
					C296.7,88.1,292.7,92.2,287.6,92.2z M287.6,79c-2.2,0-4,1.8-4,4s1.8,4,4,4c2.2,0,4-1.8,4-4S289.9,79,287.6,79z"/>
			</g>
			<g>
				<path fill="#72AAD0" d="M294.2,85.6c-1.4,0-2.5-1.1-2.5-2.5V55.3c0-1.4,1.1-2.5,2.5-2.5s2.5,1.1,2.5,2.5V83
					C296.7,84.4,295.6,85.6,294.2,85.6z"/>
			</g>
		</g>
		<g>
			<g>
				<circle fill="#FFFFFF" cx="312" cy="126.1" r="6.6"/>
				<path fill="#72AAD0" d="M312,135.2c-5,0-9.1-4.1-9.1-9.1s4.1-9.1,9.1-9.1c5,0,9.1,4.1,9.1,9.1S317,135.2,312,135.2z M312,122.1
					c-2.2,0-4,1.8-4,4s1.8,4,4,4c2.2,0,4-1.8,4-4S314.2,122.1,312,122.1z"/>
			</g>
			<g>
				<circle fill="#FFFFFF" cx="338" cy="126.1" r="6.6"/>
				<path fill="#72AAD0" d="M338,135.2c-5,0-9.1-4.1-9.1-9.1s4.1-9.1,9.1-9.1c5,0,9.1,4.1,9.1,9.1S343,135.2,338,135.2z M338,122.1
					c-2.2,0-4,1.8-4,4s1.8,4,4,4c2.2,0,4-1.8,4-4S340.2,122.1,338,122.1z"/>
			</g>
			<g>
				<path fill="#72AAD0" d="M344.6,128.6c-1.4,0-2.5-1.1-2.5-2.5v-25.2h-20.9v25.2c0,1.4-1.1,2.5-2.5,2.5s-2.5-1.1-2.5-2.5V98.4
					c0-1.4,1.1-2.5,2.5-2.5h26c1.4,0,2.5,1.1,2.5,2.5v27.7C347.1,127.5,346,128.6,344.6,128.6z"/>
			</g>
		</g>
		<g>
			<g>
				<circle fill="#FFFFFF" cx="32.4" cy="100.2" r="6.6"/>
				<path fill="#72AAD0" d="M32.4,109.3c-5,0-9.1-4.1-9.1-9.1c0-5,4.1-9.1,9.1-9.1s9.1,4.1,9.1,9.1
					C41.5,105.2,37.4,109.3,32.4,109.3z M32.4,96.2c-2.2,0-4,1.8-4,4s1.8,4,4,4s4-1.8,4-4S34.6,96.2,32.4,96.2z"/>
			</g>
			<g>
				<circle fill="#FFFFFF" cx="58.4" cy="100.2" r="6.6"/>
				<path fill="#72AAD0" d="M58.4,109.3c-5,0-9.1-4.1-9.1-9.1c0-5,4.1-9.1,9.1-9.1s9.1,4.1,9.1,9.1
					C67.5,105.2,63.4,109.3,58.4,109.3z M58.4,96.2c-2.2,0-4,1.8-4,4s1.8,4,4,4s4-1.8,4-4S60.6,96.2,58.4,96.2z"/>
			</g>
			<g>
				<path fill="#72AAD0" d="M64.9,102.7c-1.4,0-2.5-1.1-2.5-2.5V75H41.5v25.2c0,1.4-1.1,2.5-2.5,2.5s-2.5-1.1-2.5-2.5V72.5
					c0-1.4,1.1-2.5,2.5-2.5h26c1.4,0,2.5,1.1,2.5,2.5v27.7C67.5,101.6,66.4,102.7,64.9,102.7z"/>
			</g>
		</g>
		<g>
			<g>
				<circle fill="#FFFFFF" cx="77.3" cy="135" r="6.6"/>
				<path fill="#72AAD0" d="M77.3,144.1c-5,0-9.1-4.1-9.1-9.1c0-5,4.1-9.1,9.1-9.1s9.1,4.1,9.1,9.1C86.4,140,82.3,144.1,77.3,144.1z
					 M77.3,131c-2.2,0-4,1.8-4,4s1.8,4,4,4s4-1.8,4-4S79.5,131,77.3,131z"/>
			</g>
			<g>
				<path fill="#72AAD0" d="M83.8,137.5c-1.4,0-2.5-1.1-2.5-2.5v-27.7c0-1.4,1.1-2.5,2.5-2.5s2.5,1.1,2.5,2.5V135
					C86.4,136.4,85.2,137.5,83.8,137.5z"/>
			</g>
		</g>
		<g>
			<g>
				<circle fill="#FFFFFF" cx="317.5" cy="53.8" r="6.6"/>
				<path fill="#72AAD0" d="M317.5,62.9c-5,0-9.1-4.1-9.1-9.1c0-5,4.1-9.1,9.1-9.1c5,0,9.1,4.1,9.1,9.1
					C326.6,58.8,322.5,62.9,317.5,62.9z M317.5,49.8c-2.2,0-4,1.8-4,4s1.8,4,4,4c2.2,0,4-1.8,4-4S319.7,49.8,317.5,49.8z"/>
			</g>
			<g>
				<path fill="#72AAD0" d="M324,56.4c-1.4,0-2.5-1.1-2.5-2.5V26.1c0-1.4,1.1-2.5,2.5-2.5s2.5,1.1,2.5,2.5v27.7
					C326.6,55.2,325.4,56.4,324,56.4z"/>
			</g>
		</g>
		<g>
			<g>
				<circle fill="#FFFFFF" cx="89" cy="75" r="6.6"/>
				<path fill="#72AAD0" d="M89,84.1c-5,0-9.1-4.1-9.1-9.1s4.1-9.1,9.1-9.1c5,0,9.1,4.1,9.1,9.1S94,84.1,89,84.1z M89,70.9
					c-2.2,0-4,1.8-4,4s1.8,4,4,4s4-1.8,4-4S91.2,70.9,89,70.9z"/>
			</g>
			<g>
				<path fill="#72AAD0" d="M95.5,77.5c-1.4,0-2.5-1.1-2.5-2.5V47.3c0-1.4,1.1-2.5,2.5-2.5s2.5,1.1,2.5,2.5V75
					C98.1,76.4,97,77.5,95.5,77.5z"/>
			</g>
		</g>
	</g>
	<g>
		<rect x="2.5" y="2.5" fill="none" width="373.7" height="371.8"/>
	</g>
	<g>
		<path fill="#72AAD0" d="M376.3,376.9H2.5c-1.4,0-2.5-1.1-2.5-2.5V2.5C0,1.1,1.1,0,2.5,0h373.7c1.4,0,2.5,1.1,2.5,2.5v371.8
			C378.8,375.8,377.7,376.9,376.3,376.9z M5.1,371.8h368.6V5.1H5.1V371.8z"/>
	</g>
</g>
</svg>
